<svg width="76" height="65" viewBox="0 0 76 65" fill="none" xmlns="http://www.w3.org/2000/svg">
<path d="M75.0711 21.5103C74.7734 21.0425 74.2681 20.7621 73.7244 20.7491L63.767 20.6689C68.2472 16.5974 69.5554 7.76059 68.9205 2.12713C68.8427 1.49975 68.4287 0.951767 67.8456 0.738614C67.2635 0.524598 66.616 0.671303 66.1627 1.12522C65.5537 1.73966 64.9063 2.42054 64.2329 3.12817C60.1149 7.43956 55.0007 12.8064 49.5619 12.8064L38.7103 6.82599C38.6844 6.81218 38.6584 6.78543 38.6333 6.77249C38.4518 6.66548 38.2578 6.58522 38.0629 6.55847C37.6747 6.49202 37.2866 6.57228 36.937 6.77249C36.911 6.78543 36.8851 6.79924 36.8592 6.82599L26.0469 12.7796C20.6859 12.6329 15.6486 7.3593 11.5825 3.10142C10.9091 2.39379 10.2617 1.72585 9.65273 1.11228C9.21274 0.671302 8.55276 0.524598 7.96974 0.724807C7.38671 0.938823 6.97266 1.473 6.89487 2.11332C6.24743 7.73383 7.56823 16.5706 12.0359 20.6421L1.61167 20.7224C1.06796 20.7224 0.562729 21.0158 0.264943 21.4835C-0.0328435 21.9504 -0.084705 22.5381 0.135289 23.0584C2.3369 28.3847 5.48373 33.4572 11.9196 33.4572C13.4085 33.4572 15.079 33.1776 16.9435 32.5761L24.8683 59.3687C25.7875 62.4788 28.5195 64.575 31.6797 64.575H43.8906C47.05 64.575 49.7819 62.4788 50.7012 59.3687L52.7347 52.4805L57.966 34.7654C58.3282 34.0984 58.6394 33.4175 58.9112 32.7504C60.5683 33.2302 62.0572 33.4572 63.3914 33.4572C69.8273 33.4572 72.9733 28.3847 75.1749 23.0584C75.4208 22.5777 75.3689 21.9771 75.0711 21.5103ZM50.1056 49.9709L41.9993 47.5141C41.6756 47.4209 41.3519 47.3277 41.0156 47.2604L43.2172 45.1513C44.9521 43.5099 46.3632 42.1749 47.1278 40.1184C49.5878 40.5197 51.5686 40.2393 53.1872 39.5316L50.1056 49.9709ZM22.3304 39.3047C24.0134 40.1719 26.1497 40.5594 28.8566 40.1184C29.6337 42.1749 31.0448 43.5099 32.7797 45.1513L35.0591 47.3277C34.9035 47.3674 34.7354 47.3941 34.5798 47.4476L25.5023 50.0244L22.3304 39.3047ZM17.0857 21.55L27.1987 15.97L36.1858 11.0174V43.843L34.9813 42.6823C33.0515 40.8528 32.016 39.8656 31.6404 38.0231C31.6278 37.9299 31.6145 37.8497 31.6019 37.7556C31.6019 37.7297 31.5885 37.7159 31.5885 37.6892C31.5241 37.2888 31.4982 36.8487 31.4848 36.3542V33.6444C31.4329 30.9615 29.3484 28.8524 26.7328 28.8386L19.248 28.8118L17.0857 21.55ZM58.406 21.4835C58.3416 21.5896 58.2897 21.7105 58.2638 21.8304L56.2044 28.8118L49.2901 28.8386C46.6869 28.8524 44.6024 30.9615 44.538 33.6841V36.3274C44.5247 36.8487 44.4862 37.3026 44.4209 37.7297C44.4209 37.7427 44.4084 37.7556 44.4084 37.7694C44.395 37.8497 44.3691 37.9299 44.3691 38.0093C43.9935 39.8785 42.9579 40.8666 41.0156 42.6953L39.4355 44.2037V11.0442L58.406 21.4835ZM28.2351 36.8219C24.4927 37.3958 22.1104 36.0073 20.3622 32.1627L26.7202 32.1895C27.5483 32.1895 28.2092 32.8566 28.2217 33.6841V36.3947C28.2217 36.5414 28.2351 36.6881 28.2351 36.8219ZM55.0007 33.4175C53.3169 36.3145 51.0768 37.3423 47.7618 36.8348C47.7752 36.6881 47.7752 36.5276 47.7752 36.368V33.7247C47.7877 32.8704 48.4486 32.2024 49.2767 32.2024L55.3503 32.1895L55.0007 33.4175ZM65.7996 6.27801C65.5537 11.5378 63.7017 17.0375 60.7239 18.8402L54.1977 15.2494C58.6912 13.5002 62.6277 9.58922 65.7996 6.27801ZM10.0283 6.27801C13.2011 9.58922 17.1509 13.5002 21.6311 15.2494L15.1049 18.8402C12.1262 17.0245 10.2751 11.5378 10.0283 6.27801ZM4.18886 24.0862L14.3537 24.006L15.9589 29.4263C9.76984 31.4154 6.67487 29.0793 4.18886 24.0862ZM43.9031 61.2508H31.6922C30.0092 61.2508 28.5588 60.1566 28.0276 58.5273H29.5425C30.6174 58.5273 31.4848 57.6194 31.4848 56.5252C31.4848 55.4301 30.6048 54.5231 29.5425 54.5231H27.0046C26.9402 54.5231 26.8884 54.536 26.8365 54.5628L26.4475 53.2416L35.4346 50.6915C37.2866 50.1712 39.2289 50.1841 41.08 50.745L49.1604 53.1881L48.7589 54.536H48.7463H46.2085C45.1336 54.536 44.2653 55.4301 44.2653 56.5381C44.2653 57.6462 45.1461 58.5411 46.2085 58.5411H47.5678C47.0366 60.1566 45.5861 61.2508 43.9031 61.2508ZM59.5587 29.4798L61.1772 24.006L71.174 24.0862C68.7131 29.0258 65.6449 31.3748 59.5587 29.4798Z" fill="#032759"/>
</svg>
