<svg width="46" height="36" viewBox="0 0 46 36" fill="none" xmlns="http://www.w3.org/2000/svg">
<path d="M45.5321 11.574C45.3515 11.3146 45.045 11.1591 44.7152 11.1519L38.6759 11.1074C41.3932 8.84985 42.1867 3.95 41.8016 0.82634C41.7544 0.47847 41.5033 0.174621 41.1497 0.0564315C40.7966 -0.0622368 40.4039 0.0191085 40.1289 0.2708C39.7596 0.611493 39.3669 0.98903 38.9585 1.3814C36.4608 3.77199 33.359 6.74779 30.0602 6.74779L23.4785 3.43178C23.4628 3.42412 23.4471 3.40929 23.4318 3.40211C23.3218 3.34278 23.2041 3.29828 23.0858 3.28344C22.8504 3.2466 22.615 3.2911 22.403 3.40211C22.3872 3.40929 22.3715 3.41694 22.3558 3.43178L15.7979 6.73296C12.5464 6.65161 9.49117 3.72749 7.025 1.36657C6.61659 0.974197 6.22391 0.603837 5.85456 0.263622C5.5877 0.0191084 5.18741 -0.0622368 4.8338 0.0487755C4.48018 0.167444 4.22905 0.463636 4.18187 0.818684C3.78919 3.93516 4.59027 8.83501 7.29997 11.0926L0.977509 11.1371C0.647739 11.1371 0.341305 11.2998 0.160693 11.5591C-0.0199202 11.818 -0.0513752 12.1438 0.0820552 12.4324C1.41737 15.3857 3.32598 18.1983 7.22945 18.1983C8.13252 18.1983 9.14568 18.0433 10.2765 17.7098L15.0831 32.5658C15.6406 34.2903 17.2976 35.4526 19.2143 35.4526H26.6205C28.5367 35.4526 30.1937 34.2903 30.7512 32.5658L31.9846 28.7464L35.1575 18.9237C35.3772 18.5539 35.5659 18.1763 35.7308 17.8064C36.7358 18.0725 37.6389 18.1983 38.4481 18.1983C42.3516 18.1983 44.2597 15.3857 45.595 12.4324C45.7441 12.1659 45.7127 11.8328 45.5321 11.574ZM30.39 27.3549L25.4734 25.9926C25.277 25.941 25.0807 25.8893 24.8767 25.8519L26.2121 24.6825C27.2643 23.7724 28.1202 23.0321 28.5839 21.8919C30.076 22.1144 31.2773 21.9589 32.259 21.5665L30.39 27.3549ZM13.5438 21.4406C14.5646 21.9215 15.8603 22.1364 17.5021 21.8919C17.9734 23.0321 18.8293 23.7724 19.8815 24.6825L21.264 25.8893C21.1696 25.9113 21.0676 25.9261 20.9733 25.9558L15.4676 27.3846L13.5438 21.4406ZM10.3628 11.596L16.4965 8.50198L21.9474 5.75586V23.9571L21.2168 23.3135C20.0464 22.2991 19.4183 21.7517 19.1905 20.7301C19.1829 20.6784 19.1748 20.6339 19.1672 20.5817C19.1672 20.5674 19.159 20.5597 19.159 20.5449C19.12 20.3229 19.1042 20.0788 19.0961 19.8047V18.3022C19.0647 16.8145 17.8004 15.645 16.2139 15.6374L11.6743 15.6226L10.3628 11.596ZM35.4243 11.5591C35.3853 11.618 35.3538 11.685 35.3381 11.7515L34.089 15.6226L29.8954 15.6374C28.3165 15.645 27.0522 16.8145 27.0132 18.3242V19.7898C27.005 20.0788 26.9817 20.3305 26.9421 20.5674C26.9421 20.5746 26.9345 20.5817 26.9345 20.5894C26.9264 20.6339 26.9107 20.6784 26.9107 20.7224C26.6829 21.7589 26.0548 22.3067 24.8767 23.3207L23.9184 24.1571V5.77069L35.4243 11.5591ZM17.1251 20.064C14.8553 20.3822 13.4104 19.6123 12.35 17.4806L16.2063 17.4954C16.7086 17.4954 17.1094 17.8653 17.117 18.3242V19.8271C17.117 19.9085 17.1251 19.9898 17.1251 20.064ZM33.359 18.1763C32.3377 19.7826 30.979 20.3525 28.9684 20.0712C28.9766 19.9898 28.9766 19.9008 28.9766 19.8123V18.3467C28.9842 17.8729 29.385 17.5026 29.8872 17.5026L33.571 17.4954L33.359 18.1763ZM39.9087 3.12793C39.7596 6.04439 38.6363 9.09388 36.8302 10.0935L32.8719 8.10243C35.5973 7.13251 37.9849 4.96394 39.9087 3.12793ZM6.08236 3.12793C8.0067 4.96394 10.4024 7.13251 13.1197 8.10243L9.1614 10.0935C7.35477 9.08671 6.23202 6.04439 6.08236 3.12793ZM2.54062 13.0023L8.70581 12.9578L9.6794 15.9632C5.92559 17.0662 4.04844 15.7709 2.54062 13.0023ZM26.6281 33.6094H19.2219C18.2012 33.6094 17.3214 33.0027 16.9993 32.0993H17.9181C18.57 32.0993 19.0961 31.5959 19.0961 30.9891C19.0961 30.3819 18.5624 29.879 17.9181 29.879H16.3788C16.3397 29.879 16.3083 29.8862 16.2768 29.901L16.0409 29.1684L21.4918 27.7545C22.615 27.4659 23.7931 27.4731 24.9158 27.7841L29.8167 29.1388L29.5732 29.8862H29.5656H28.0263C27.3744 29.8862 26.8478 30.3819 26.8478 30.9963C26.8478 31.6107 27.382 32.1069 28.0263 32.1069H28.8507C28.5286 33.0027 27.6489 33.6094 26.6281 33.6094ZM36.1235 15.9929L37.1052 12.9578L43.1684 13.0023C41.6758 15.7412 39.8149 17.0437 36.1235 15.9929Z" fill="white"/>
</svg>
