<svg width="191" height="113" viewBox="0 0 191 113" fill="none" xmlns="http://www.w3.org/2000/svg">
<rect width="190.133" height="112.579" rx="18.7632" fill="url(#paint0_linear_136_1652)"/>
<mask id="mask0_136_1652" style="mask-type:alpha" maskUnits="userSpaceOnUse" x="0" y="0" width="191" height="113">
<rect width="190.133" height="112.579" rx="18.7632" fill="#ED713C"/>
</mask>
<g mask="url(#mask0_136_1652)">
<ellipse opacity="0.1" cx="15.3233" cy="133.219" rx="100.383" ry="70.6746" fill="#9E4B00"/>
<ellipse opacity="0.08" cx="181.69" cy="-18.1379" rx="100.383" ry="70.6746" fill="#9E4B00"/>
</g>
<path d="M147.715 95.4163C147.224 95.4142 146.804 95.2846 146.456 95.0276C146.108 94.7705 145.841 94.3964 145.657 93.9051C145.472 93.4138 145.38 92.822 145.38 92.1296C145.38 91.4393 145.472 90.8496 145.657 90.3603C145.843 89.8711 146.111 89.498 146.459 89.2409C146.809 88.9839 147.228 88.8554 147.715 88.8554C148.203 88.8554 148.62 88.9849 148.968 89.2441C149.317 89.5011 149.583 89.8742 149.768 90.3635C149.954 90.8506 150.047 91.4393 150.047 92.1296C150.047 92.824 149.955 93.4169 149.771 93.9082C149.586 94.3974 149.32 94.7716 148.972 95.0307C148.623 95.2877 148.205 95.4163 147.715 95.4163ZM147.715 94.5861C148.147 94.5861 148.483 94.3756 148.726 93.9548C148.971 93.534 149.093 92.9256 149.093 92.1296C149.093 91.601 149.037 91.1543 148.925 90.7894C148.815 90.4225 148.656 90.1448 148.449 89.9561C148.244 89.7654 147.999 89.67 147.715 89.67C147.286 89.67 146.949 89.8815 146.705 90.3044C146.46 90.7273 146.337 91.3357 146.335 92.1296C146.335 92.6603 146.39 93.1091 146.5 93.476C146.612 93.8408 146.77 94.1176 146.975 94.3062C147.181 94.4928 147.427 94.5861 147.715 94.5861ZM153.581 88.8554C153.865 88.8575 154.145 88.9093 154.42 89.0109C154.696 89.1124 154.945 89.2783 155.167 89.5084C155.39 89.7385 155.569 90.0494 155.701 90.4412C155.836 90.8309 155.905 91.316 155.907 91.8964C155.907 92.454 155.851 92.9505 155.739 93.3858C155.627 93.8191 155.466 94.1849 155.257 94.4834C155.049 94.7819 154.798 95.0089 154.501 95.1644C154.205 95.3199 153.871 95.3976 153.5 95.3976C153.121 95.3976 152.784 95.323 152.489 95.1737C152.195 95.0245 151.956 94.8182 151.771 94.555C151.587 94.2896 151.472 93.9849 151.426 93.6408H152.374C152.436 93.9144 152.563 94.1362 152.754 94.3062C152.946 94.4741 153.195 94.5581 153.5 94.5581C153.966 94.5581 154.33 94.3549 154.591 93.9486C154.852 93.5402 154.984 92.9702 154.986 92.2384H154.936C154.829 92.4167 154.694 92.5701 154.532 92.6986C154.373 92.8272 154.193 92.9267 153.994 92.9971C153.795 93.0676 153.583 93.1029 153.357 93.1029C152.99 93.1029 152.656 93.0127 152.356 92.8323C152.055 92.652 151.816 92.4043 151.637 92.0892C151.459 91.7741 151.37 91.4144 151.37 91.0102C151.37 90.6081 151.461 90.2432 151.644 89.9157C151.828 89.5882 152.085 89.329 152.415 89.1383C152.746 88.9456 153.135 88.8512 153.581 88.8554ZM153.584 89.6638C153.341 89.6638 153.123 89.7239 152.928 89.8442C152.735 89.9623 152.583 90.123 152.471 90.3261C152.359 90.5272 152.303 90.7511 152.303 90.9978C152.303 91.2445 152.357 91.4683 152.464 91.6694C152.574 91.8684 152.724 92.027 152.912 92.1452C153.103 92.2612 153.321 92.3193 153.565 92.3193C153.748 92.3193 153.918 92.284 154.075 92.2136C154.233 92.1431 154.371 92.0457 154.489 91.9213C154.607 91.7948 154.699 91.6518 154.765 91.4922C154.832 91.3326 154.865 91.1646 154.865 90.9884C154.865 90.7542 154.809 90.5365 154.697 90.3355C154.587 90.1344 154.436 89.9727 154.243 89.8504C154.05 89.726 153.831 89.6638 153.584 89.6638ZM159.78 88.6439L157.728 96.2682H156.898L158.95 88.6439H159.78ZM160.87 95.3105V94.614L163.025 92.3815C163.255 92.1389 163.445 91.9265 163.594 91.744C163.746 91.5595 163.859 91.3844 163.933 91.2185C164.008 91.0527 164.045 90.8765 164.045 90.6899C164.045 90.4785 163.995 90.2961 163.896 90.1427C163.796 89.9872 163.661 89.868 163.489 89.7851C163.317 89.7001 163.123 89.6576 162.907 89.6576C162.679 89.6576 162.48 89.7043 162.31 89.7975C162.14 89.8908 162.01 90.0225 161.918 90.1924C161.827 90.3624 161.782 90.5614 161.782 90.7894H160.864C160.864 90.4018 160.953 90.0629 161.132 89.7727C161.31 89.4824 161.555 89.2575 161.865 89.0979C162.176 88.9362 162.53 88.8554 162.926 88.8554C163.326 88.8554 163.678 88.9352 163.983 89.0948C164.29 89.2524 164.529 89.4679 164.701 89.7416C164.873 90.0131 164.959 90.3199 164.959 90.662C164.959 90.8983 164.915 91.1294 164.826 91.3554C164.739 91.5813 164.586 91.8332 164.369 92.1109C164.151 92.3867 163.848 92.7214 163.461 93.1153L162.195 94.4399V94.4865H165.062V95.3105H160.87ZM168.655 95.3976C168.265 95.3976 167.915 95.323 167.604 95.1737C167.295 95.0224 167.049 94.8151 166.864 94.5518C166.68 94.2886 166.581 93.988 166.569 93.6501H167.502C167.524 93.9237 167.646 94.1487 167.865 94.3249C168.085 94.5011 168.348 94.5892 168.655 94.5892C168.9 94.5892 169.116 94.5332 169.305 94.4213C169.496 94.3072 169.645 94.1507 169.753 93.9517C169.863 93.7527 169.918 93.5257 169.918 93.2708C169.918 93.0116 169.862 92.7805 169.75 92.5774C169.638 92.3742 169.483 92.2146 169.286 92.0985C169.091 91.9824 168.868 91.9233 168.615 91.9213C168.422 91.9213 168.228 91.9544 168.033 92.0208C167.838 92.0871 167.681 92.1742 167.561 92.282L166.681 92.1514L167.038 88.9424H170.539V89.7664H167.837L167.635 91.5481H167.673C167.797 91.4279 167.962 91.3274 168.167 91.2465C168.374 91.1657 168.596 91.1253 168.832 91.1253C169.22 91.1253 169.565 91.2175 169.868 91.402C170.173 91.5865 170.412 91.8384 170.586 92.1576C170.762 92.4748 170.849 92.8396 170.847 93.2521C170.849 93.6646 170.756 94.0326 170.567 94.356C170.381 94.6793 170.122 94.9343 169.79 95.1209C169.46 95.3054 169.082 95.3976 168.655 95.3976Z" fill="white"/>
<path opacity="0.9" d="M22.4083 62.1979C22.0142 62.1979 21.6542 62.1018 21.3285 61.9096C21.0027 61.7142 20.7421 61.4536 20.5467 61.1278C20.3545 60.8021 20.2584 60.4421 20.2584 60.048C20.2584 59.6506 20.3545 59.2906 20.5467 58.9681C20.7421 58.6424 21.0027 58.3834 21.3285 58.1912C21.6542 57.9958 22.0142 57.898 22.4083 57.898C22.8057 57.898 23.1657 57.9958 23.4882 58.1912C23.8139 58.3834 24.0729 58.6424 24.2651 58.9681C24.4605 59.2906 24.5583 59.6506 24.5583 60.048C24.5583 60.4421 24.4605 60.8021 24.2651 61.1278C24.0729 61.4536 23.8139 61.7142 23.4882 61.9096C23.1657 62.1018 22.8057 62.1979 22.4083 62.1979ZM30.004 62.1979C29.6098 62.1979 29.2499 62.1018 28.9241 61.9096C28.5984 61.7142 28.3378 61.4536 28.1423 61.1278C27.9501 60.8021 27.854 60.4421 27.854 60.048C27.854 59.6506 27.9501 59.2906 28.1423 58.9681C28.3378 58.6424 28.5984 58.3834 28.9241 58.1912C29.2499 57.9958 29.6098 57.898 30.004 57.898C30.4014 57.898 30.7613 57.9958 31.0838 58.1912C31.4096 58.3834 31.6686 58.6424 31.8607 58.9681C32.0562 59.2906 32.1539 59.6506 32.1539 60.048C32.1539 60.4421 32.0562 60.8021 31.8607 61.1278C31.6686 61.4536 31.4096 61.7142 31.0838 61.9096C30.7613 62.1018 30.4014 62.1979 30.004 62.1979ZM37.5996 62.1979C37.2055 62.1979 36.8455 62.1018 36.5198 61.9096C36.194 61.7142 35.9334 61.4536 35.738 61.1278C35.5458 60.8021 35.4497 60.4421 35.4497 60.048C35.4497 59.6506 35.5458 59.2906 35.738 58.9681C35.9334 58.6424 36.194 58.3834 36.5198 58.1912C36.8455 57.9958 37.2055 57.898 37.5996 57.898C37.997 57.898 38.357 57.9958 38.6795 58.1912C39.0052 58.3834 39.2642 58.6424 39.4564 58.9681C39.6519 59.2906 39.7496 59.6506 39.7496 60.048C39.7496 60.4421 39.6519 60.8021 39.4564 61.1278C39.2642 61.4536 39.0052 61.7142 38.6795 61.9096C38.357 62.1018 37.997 62.1979 37.5996 62.1979ZM45.1953 62.1979C44.8011 62.1979 44.4412 62.1018 44.1154 61.9096C43.7897 61.7142 43.5291 61.4536 43.3336 61.1278C43.1414 60.8021 43.0453 60.4421 43.0453 60.048C43.0453 59.6506 43.1414 59.2906 43.3336 58.9681C43.5291 58.6424 43.7897 58.3834 44.1154 58.1912C44.4412 57.9958 44.8011 57.898 45.1953 57.898C45.5927 57.898 45.9527 57.9958 46.2752 58.1912C46.6009 58.3834 46.8599 58.6424 47.0521 58.9681C47.2475 59.2906 47.3452 59.6506 47.3452 60.048C47.3452 60.4421 47.2475 60.8021 47.0521 61.1278C46.8599 61.4536 46.6009 61.7142 46.2752 61.9096C45.9527 62.1018 45.5927 62.1979 45.1953 62.1979ZM56.7451 62.1979C56.351 62.1979 55.991 62.1018 55.6653 61.9096C55.3395 61.7142 55.0789 61.4536 54.8835 61.1278C54.6913 60.8021 54.5952 60.4421 54.5952 60.048C54.5952 59.6506 54.6913 59.2906 54.8835 58.9681C55.0789 58.6424 55.3395 58.3834 55.6653 58.1912C55.991 57.9958 56.351 57.898 56.7451 57.898C57.1426 57.898 57.5025 57.9958 57.825 58.1912C58.1507 58.3834 58.4097 58.6424 58.6019 58.9681C58.7974 59.2906 58.8951 59.6506 58.8951 60.048C58.8951 60.4421 58.7974 60.8021 58.6019 61.1278C58.4097 61.4536 58.1507 61.7142 57.825 61.9096C57.5025 62.1018 57.1426 62.1979 56.7451 62.1979ZM64.3408 62.1979C63.9466 62.1979 63.5867 62.1018 63.2609 61.9096C62.9352 61.7142 62.6746 61.4536 62.4791 61.1278C62.287 60.8021 62.1909 60.4421 62.1909 60.048C62.1909 59.6506 62.287 59.2906 62.4791 58.9681C62.6746 58.6424 62.9352 58.3834 63.2609 58.1912C63.5867 57.9958 63.9466 57.898 64.3408 57.898C64.7382 57.898 65.0982 57.9958 65.4207 58.1912C65.7464 58.3834 66.0054 58.6424 66.1976 58.9681C66.393 59.2906 66.4907 59.6506 66.4907 60.048C66.4907 60.4421 66.393 60.8021 66.1976 61.1278C66.0054 61.4536 65.7464 61.7142 65.4207 61.9096C65.0982 62.1018 64.7382 62.1979 64.3408 62.1979ZM71.9365 62.1979C71.5423 62.1979 71.1823 62.1018 70.8566 61.9096C70.5309 61.7142 70.2703 61.4536 70.0748 61.1278C69.8826 60.8021 69.7865 60.4421 69.7865 60.048C69.7865 59.6506 69.8826 59.2906 70.0748 58.9681C70.2703 58.6424 70.5309 58.3834 70.8566 58.1912C71.1823 57.9958 71.5423 57.898 71.9365 57.898C72.3339 57.898 72.6938 57.9958 73.0163 58.1912C73.3421 58.3834 73.601 58.6424 73.7932 58.9681C73.9887 59.2906 74.0864 59.6506 74.0864 60.048C74.0864 60.4421 73.9887 60.8021 73.7932 61.1278C73.601 61.4536 73.3421 61.7142 73.0163 61.9096C72.6938 62.1018 72.3339 62.1979 71.9365 62.1979ZM79.5321 62.1979C79.138 62.1979 78.778 62.1018 78.4523 61.9096C78.1265 61.7142 77.8659 61.4536 77.6705 61.1278C77.4783 60.8021 77.3822 60.4421 77.3822 60.048C77.3822 59.6506 77.4783 59.2906 77.6705 58.9681C77.8659 58.6424 78.1265 58.3834 78.4523 58.1912C78.778 57.9958 79.138 57.898 79.5321 57.898C79.9295 57.898 80.2895 57.9958 80.612 58.1912C80.9377 58.3834 81.1967 58.6424 81.3889 58.9681C81.5843 59.2906 81.6821 59.6506 81.6821 60.048C81.6821 60.4421 81.5843 60.8021 81.3889 61.1278C81.1967 61.4536 80.9377 61.7142 80.612 61.9096C80.2895 62.1018 79.9295 62.1979 79.5321 62.1979ZM91.082 62.1979C90.6878 62.1979 90.3279 62.1018 90.0021 61.9096C89.6764 61.7142 89.4158 61.4536 89.2203 61.1278C89.0281 60.8021 88.932 60.4421 88.932 60.048C88.932 59.6506 89.0281 59.2906 89.2203 58.9681C89.4158 58.6424 89.6764 58.3834 90.0021 58.1912C90.3279 57.9958 90.6878 57.898 91.082 57.898C91.4794 57.898 91.8393 57.9958 92.1618 58.1912C92.4876 58.3834 92.7465 58.6424 92.9387 58.9681C93.1342 59.2906 93.2319 59.6506 93.2319 60.048C93.2319 60.4421 93.1342 60.8021 92.9387 61.1278C92.7465 61.4536 92.4876 61.7142 92.1618 61.9096C91.8393 62.1018 91.4794 62.1979 91.082 62.1979ZM98.6776 62.1979C98.2835 62.1979 97.9235 62.1018 97.5978 61.9096C97.272 61.7142 97.0114 61.4536 96.816 61.1278C96.6238 60.8021 96.5277 60.4421 96.5277 60.048C96.5277 59.6506 96.6238 59.2906 96.816 58.9681C97.0114 58.6424 97.272 58.3834 97.5978 58.1912C97.9235 57.9958 98.2835 57.898 98.6776 57.898C99.075 57.898 99.435 57.9958 99.7575 58.1912C100.083 58.3834 100.342 58.6424 100.534 58.9681C100.73 59.2906 100.828 59.6506 100.828 60.048C100.828 60.4421 100.73 60.8021 100.534 61.1278C100.342 61.4536 100.083 61.7142 99.7575 61.9096C99.435 62.1018 99.075 62.1979 98.6776 62.1979ZM106.273 62.1979C105.879 62.1979 105.519 62.1018 105.193 61.9096C104.868 61.7142 104.607 61.4536 104.412 61.1278C104.219 60.8021 104.123 60.4421 104.123 60.048C104.123 59.6506 104.219 59.2906 104.412 58.9681C104.607 58.6424 104.868 58.3834 105.193 58.1912C105.519 57.9958 105.879 57.898 106.273 57.898C106.671 57.898 107.031 57.9958 107.353 58.1912C107.679 58.3834 107.938 58.6424 108.13 58.9681C108.326 59.2906 108.423 59.6506 108.423 60.048C108.423 60.4421 108.326 60.8021 108.13 61.1278C107.938 61.4536 107.679 61.7142 107.353 61.9096C107.031 62.1018 106.671 62.1979 106.273 62.1979ZM113.869 62.1979C113.475 62.1979 113.115 62.1018 112.789 61.9096C112.463 61.7142 112.203 61.4536 112.007 61.1278C111.815 60.8021 111.719 60.4421 111.719 60.048C111.719 59.6506 111.815 59.2906 112.007 58.9681C112.203 58.6424 112.463 58.3834 112.789 58.1912C113.115 57.9958 113.475 57.898 113.869 57.898C114.266 57.898 114.626 57.9958 114.949 58.1912C115.275 58.3834 115.534 58.6424 115.726 58.9681C115.921 59.2906 116.019 59.6506 116.019 60.048C116.019 60.4421 115.921 60.8021 115.726 61.1278C115.534 61.4536 115.275 61.7142 114.949 61.9096C114.626 62.1018 114.266 62.1979 113.869 62.1979ZM125.419 61.1816C125.025 61.1816 124.665 61.0855 124.339 60.8933C124.013 60.6979 123.753 60.4373 123.557 60.1115C123.365 59.7858 123.269 59.4258 123.269 59.0316C123.269 58.6342 123.365 58.2743 123.557 57.9518C123.753 57.626 124.013 57.3671 124.339 57.1749C124.665 56.9794 125.025 56.8817 125.419 56.8817C125.816 56.8817 126.176 56.9794 126.499 57.1749C126.824 57.3671 127.083 57.626 127.276 57.9518C127.471 58.2743 127.569 58.6342 127.569 59.0316C127.569 59.4258 127.471 59.7858 127.276 60.1115C127.083 60.4373 126.824 60.6979 126.499 60.8933C126.176 61.0855 125.816 61.1816 125.419 61.1816ZM130.332 64.0352V62.9406L133.718 59.4323C134.08 59.0512 134.378 58.7173 134.612 58.4306C134.85 58.1407 135.028 57.8655 135.145 57.6049C135.262 57.3443 135.321 57.0674 135.321 56.7742C135.321 56.4419 135.243 56.1553 135.086 55.9142C134.93 55.6699 134.716 55.4826 134.446 55.3523C134.176 55.2188 133.871 55.152 133.532 55.152C133.174 55.152 132.861 55.2253 132.594 55.3719C132.327 55.5184 132.122 55.7253 131.979 55.9924C131.835 56.2595 131.764 56.5722 131.764 56.9306H130.322C130.322 56.3214 130.462 55.7888 130.742 55.3328C131.022 54.8767 131.407 54.5233 131.896 54.2725C132.384 54.0184 132.94 53.8913 133.562 53.8913C134.19 53.8913 134.744 54.0167 135.223 54.2676C135.705 54.5151 136.081 54.8539 136.352 55.2839C136.622 55.7106 136.757 56.1927 136.757 56.7302C136.757 57.1016 136.687 57.4648 136.547 57.8199C136.41 58.1749 136.171 58.5707 135.829 59.0072C135.487 59.4405 135.011 59.9665 134.402 60.5855L132.413 62.667V62.7403H136.919V64.0352H130.332ZM142.464 64.172C141.764 64.172 141.145 64.0514 140.608 63.8104C140.073 63.5693 139.655 63.2371 139.352 62.8136C139.049 62.3901 138.899 61.908 138.902 61.3673C138.899 60.9438 138.985 60.5545 139.161 60.1995C139.34 59.8411 139.583 59.5431 139.889 59.3053C140.196 59.0642 140.538 58.9111 140.915 58.846V58.7873C140.417 58.6668 140.018 58.3997 139.718 57.986C139.419 57.5723 139.27 57.0967 139.274 56.5592C139.27 56.0478 139.406 55.5917 139.679 55.1911C139.956 54.7871 140.336 54.4695 140.818 54.2382C141.3 54.007 141.849 53.8913 142.464 53.8913C143.074 53.8913 143.618 54.0086 144.096 54.2431C144.579 54.4744 144.958 54.792 145.235 55.1959C145.512 55.5966 145.652 56.051 145.655 56.5592C145.652 57.0967 145.499 57.5723 145.196 57.986C144.893 58.3997 144.499 58.6668 144.013 58.7873V58.846C144.388 58.9111 144.725 59.0642 145.025 59.3053C145.328 59.5431 145.569 59.8411 145.748 60.1995C145.93 60.5545 146.023 60.9438 146.027 61.3673C146.023 61.908 145.87 62.3901 145.567 62.8136C145.264 63.2371 144.844 63.5693 144.307 63.8104C143.772 64.0514 143.158 64.172 142.464 64.172ZM142.464 62.9358C142.878 62.9358 143.236 62.8673 143.539 62.7305C143.842 62.5905 144.077 62.3966 144.243 62.1491C144.409 61.8982 144.494 61.6051 144.497 61.2695C144.494 60.921 144.403 60.6132 144.223 60.346C144.048 60.0789 143.808 59.8688 143.505 59.7157C143.202 59.5626 142.855 59.4861 142.464 59.4861C142.07 59.4861 141.72 59.5626 141.414 59.7157C141.108 59.8688 140.867 60.0789 140.691 60.346C140.515 60.6132 140.429 60.921 140.432 61.2695C140.429 61.6051 140.508 61.8982 140.671 62.1491C140.837 62.3966 141.073 62.5905 141.38 62.7305C141.686 62.8673 142.047 62.9358 142.464 62.9358ZM142.464 58.2792C142.797 58.2792 143.092 58.2124 143.349 58.0788C143.606 57.9453 143.808 57.7596 143.955 57.5218C144.105 57.284 144.181 57.0055 144.184 56.6863C144.181 56.3735 144.106 56.0999 143.96 55.8654C143.816 55.6308 143.616 55.45 143.359 55.323C143.101 55.1927 142.803 55.1275 142.464 55.1275C142.119 55.1275 141.816 55.1927 141.556 55.323C141.298 55.45 141.098 55.6308 140.955 55.8654C140.811 56.0999 140.741 56.3735 140.744 56.6863C140.741 57.0055 140.813 57.284 140.959 57.5218C141.106 57.7596 141.308 57.9453 141.565 58.0788C141.826 58.2124 142.126 58.2792 142.464 58.2792ZM151.417 53.8913C151.864 53.8946 152.303 53.976 152.737 54.1356C153.17 54.2953 153.561 54.5559 153.909 54.9174C154.261 55.279 154.541 55.7676 154.75 56.3833C154.961 56.9957 155.069 57.758 155.072 58.6701C155.072 59.5463 154.984 60.3265 154.808 61.0106C154.632 61.6914 154.38 62.2663 154.051 62.7354C153.725 63.2045 153.329 63.5612 152.864 63.8055C152.398 64.0498 151.873 64.172 151.29 64.172C150.694 64.172 150.165 64.0547 149.702 63.8202C149.24 63.5856 148.863 63.2615 148.573 62.8478C148.284 62.4308 148.103 61.952 148.031 61.4112H149.521C149.619 61.8412 149.818 62.1898 150.118 62.4569C150.42 62.7208 150.811 62.8527 151.29 62.8527C152.023 62.8527 152.595 62.5335 153.005 61.895C153.416 61.2533 153.623 60.3574 153.626 59.2076H153.548C153.378 59.4877 153.167 59.7288 152.912 59.9307C152.662 60.1327 152.38 60.289 152.067 60.3998C151.754 60.5105 151.421 60.5659 151.065 60.5659C150.489 60.5659 149.964 60.4242 149.492 60.1408C149.02 59.8574 148.643 59.4682 148.363 58.973C148.083 58.4779 147.943 57.9127 147.943 57.2775C147.943 56.6455 148.086 56.0722 148.373 55.5575C148.663 55.0428 149.067 54.6357 149.585 54.336C150.106 54.033 150.717 53.8848 151.417 53.8913ZM151.422 55.1617C151.041 55.1617 150.697 55.2562 150.391 55.4451C150.088 55.6308 149.849 55.8833 149.673 56.2025C149.497 56.5185 149.409 56.8703 149.409 57.2579C149.409 57.6456 149.494 57.9974 149.663 58.3134C149.836 58.6261 150.07 58.8753 150.367 59.061C150.666 59.2434 151.008 59.3346 151.393 59.3346C151.679 59.3346 151.947 59.2792 152.194 59.1685C152.442 59.0577 152.658 58.9046 152.844 58.7092C153.03 58.5104 153.175 58.2857 153.279 58.0349C153.383 57.784 153.435 57.5202 153.435 57.2433C153.435 56.8752 153.347 56.5332 153.171 56.2172C152.999 55.9012 152.761 55.6471 152.458 55.4549C152.155 55.2595 151.81 55.1617 151.422 55.1617Z" fill="white"/>
<path d="M154.772 17.1157H162.116V30.4921H154.772V17.1157Z" fill="#FF5F00"/>
<path d="M149.806 37.2249V35.807C149.806 35.2633 149.48 34.9089 148.92 34.9089C148.641 34.9089 148.338 35.0034 148.128 35.3107C147.965 35.0507 147.731 34.9089 147.382 34.9089C147.148 34.9089 146.915 34.9798 146.729 35.2397V34.9562H146.239V37.2249H146.729V35.9723C146.729 35.5707 146.939 35.3815 147.265 35.3815C147.591 35.3815 147.755 35.5943 147.755 35.9723V37.2249H148.244V35.9723C148.244 35.5707 148.477 35.3815 148.781 35.3815C149.107 35.3815 149.27 35.5943 149.27 35.9723V37.2249H149.806ZM157.057 34.9562H156.265V34.2708H155.775V34.9562H155.332V35.4051H155.775V36.4451C155.775 36.965 155.985 37.2722 156.544 37.2722C156.754 37.2722 156.987 37.2013 157.151 37.1068L157.011 36.6814C156.871 36.7759 156.708 36.7996 156.591 36.7996C156.358 36.7996 156.265 36.6578 156.265 36.4214V35.4051H157.057V34.9562ZM161.207 34.9088C160.928 34.9088 160.741 35.0507 160.625 35.2397V34.9562H160.135V37.2249H160.625V35.9488C160.625 35.5707 160.788 35.3579 161.091 35.3579C161.184 35.3579 161.301 35.3816 161.394 35.4052L161.534 34.9326C161.44 34.9089 161.301 34.9089 161.207 34.9089V34.9088ZM154.936 35.1452C154.702 34.9797 154.376 34.9089 154.026 34.9089C153.467 34.9089 153.094 35.1925 153.094 35.6415C153.094 36.0197 153.374 36.2323 153.863 36.3033L154.096 36.327C154.353 36.3741 154.493 36.4451 154.493 36.5633C154.493 36.7286 154.306 36.8468 153.98 36.8468C153.653 36.8468 153.397 36.7286 153.234 36.6105L153.001 36.9886C153.257 37.1777 153.607 37.2722 153.956 37.2722C154.609 37.2722 154.982 36.965 154.982 36.5396C154.982 36.1378 154.679 35.9251 154.213 35.8542L153.98 35.8306C153.77 35.8069 153.607 35.7597 153.607 35.6179C153.607 35.4525 153.77 35.3579 154.026 35.3579C154.306 35.3579 154.586 35.476 154.726 35.547L154.936 35.1452ZM167.945 34.9089C167.666 34.9089 167.479 35.0507 167.362 35.2397V34.9562H166.873V37.2249H167.362V35.9488C167.362 35.5707 167.526 35.3579 167.829 35.3579C167.922 35.3579 168.039 35.3816 168.132 35.4052L168.272 34.9326C168.179 34.9089 168.039 34.9089 167.945 34.9089ZM161.697 36.0905C161.697 36.7759 162.163 37.2722 162.886 37.2722C163.212 37.2722 163.446 37.2013 163.679 37.0123L163.446 36.6105C163.259 36.7523 163.073 36.8231 162.863 36.8231C162.466 36.8231 162.187 36.5396 162.187 36.0905C162.187 35.6652 162.466 35.3815 162.863 35.3579C163.073 35.3579 163.259 35.4288 163.446 35.5707L163.679 35.1689C163.446 34.9797 163.212 34.9089 162.886 34.9089C162.163 34.9089 161.697 35.4052 161.697 36.0905ZM166.22 36.0905V34.9562H165.73V35.2397C165.567 35.0271 165.334 34.9089 165.031 34.9089C164.402 34.9089 163.912 35.4052 163.912 36.0905C163.912 36.7759 164.402 37.2722 165.031 37.2722C165.357 37.2722 165.591 37.1541 165.73 36.9414V37.2249H166.22V36.0905ZM164.425 36.0905C164.425 35.6888 164.681 35.3579 165.101 35.3579C165.497 35.3579 165.777 35.6652 165.777 36.0905C165.777 36.4923 165.497 36.8231 165.101 36.8231C164.681 36.7995 164.425 36.4923 164.425 36.0905ZM158.573 34.9089C157.92 34.9089 157.454 35.3815 157.454 36.0905C157.454 36.7996 157.92 37.2722 158.596 37.2722C158.922 37.2722 159.249 37.1777 159.505 36.965L159.272 36.6105C159.086 36.7523 158.853 36.8468 158.619 36.8468C158.316 36.8468 158.013 36.705 157.943 36.3032H159.599V36.1142C159.622 35.3815 159.202 34.9089 158.573 34.9089H158.573ZM158.573 35.3343C158.876 35.3343 159.086 35.5234 159.132 35.8779H157.967C158.013 35.5707 158.223 35.3343 158.573 35.3343ZM170.72 36.0905V34.0581H170.23V35.2397C170.067 35.0271 169.834 34.9089 169.531 34.9089C168.901 34.9089 168.412 35.4052 168.412 36.0905C168.412 36.7759 168.901 37.2722 169.531 37.2722C169.857 37.2722 170.09 37.1541 170.23 36.9414V37.2249H170.72V36.0905ZM168.925 36.0905C168.925 35.6888 169.181 35.3579 169.601 35.3579C169.997 35.3579 170.277 35.6652 170.277 36.0905C170.277 36.4923 169.997 36.8231 169.601 36.8231C169.181 36.7995 168.925 36.4923 168.925 36.0905ZM152.558 36.0905V34.9562H152.068V35.2397C151.905 35.0271 151.672 34.9089 151.368 34.9089C150.739 34.9089 150.249 35.4052 150.249 36.0905C150.249 36.7759 150.739 37.2722 151.368 37.2722C151.695 37.2722 151.928 37.1541 152.068 36.9414V37.2249H152.558V36.0905ZM150.739 36.0905C150.739 35.6888 150.995 35.3579 151.415 35.3579C151.811 35.3579 152.091 35.6652 152.091 36.0905C152.091 36.4923 151.811 36.8231 151.415 36.8231C150.995 36.7995 150.739 36.4923 150.739 36.0905Z" fill="white"/>
<path d="M155.238 23.8039C155.238 21.0861 156.497 18.6754 158.432 17.1156C157.01 15.9812 155.215 15.2959 153.257 15.2959C148.617 15.2959 144.863 19.1008 144.863 23.8039C144.863 28.5068 148.617 32.3118 153.257 32.3118C155.215 32.3118 157.01 31.6265 158.432 30.492C156.497 28.9559 155.238 26.5217 155.238 23.8039Z" fill="#EB001B"/>
<path d="M172.025 23.8039C172.025 28.5068 168.271 32.3118 163.631 32.3118C161.673 32.3118 159.878 31.6265 158.456 30.492C160.414 28.9323 161.65 26.5217 161.65 23.8039C161.65 21.0861 160.391 18.6754 158.456 17.1156C159.878 15.9812 161.673 15.2959 163.631 15.2959C168.271 15.2959 172.025 19.1245 172.025 23.8039H172.025Z" fill="#F79E1B"/>
<rect x="18.7632" y="17.5122" width="20.6395" height="13.7596" rx="3.12719" fill="url(#paint1_radial_136_1652)"/>
<path fill-rule="evenodd" clip-rule="evenodd" d="M29.0828 17.6489L26.7896 21.2448C26.7896 21.2448 27.7069 24.3912 26.7896 27.088L29.0828 31.1334L31.3761 27.088C31.3761 27.088 30.4588 24.8406 31.3761 21.2448C31.3761 21.2448 29.0828 17.6489 29.0828 17.6489Z" stroke="#C7C7B6" stroke-width="0.81307" stroke-linejoin="bevel"/>
<path d="M18.7632 21.41H26.7896" stroke="#C7C7B6" stroke-width="0.81307" stroke-linejoin="bevel"/>
<path d="M31.1465 21.41H39.4023" stroke="#C7C7B6" stroke-width="0.81307" stroke-linejoin="bevel"/>
<path d="M18.7632 26.9134H26.7896" stroke="#C7C7B6" stroke-width="0.81307" stroke-linejoin="bevel"/>
<path d="M31.1465 26.9134H39.4023" stroke="#C7C7B6" stroke-width="0.81307" stroke-linejoin="bevel"/>
<g clip-path="url(#clip0_136_1652)">
<path d="M19.5343 95.3105V88.9424H21.686C22.1836 88.9424 22.5919 89.0274 22.9112 89.1974C23.2304 89.3653 23.4667 89.5965 23.6201 89.8908C23.7735 90.1852 23.8502 90.52 23.8502 90.8952C23.8502 91.2704 23.7735 91.6031 23.6201 91.8933C23.4667 92.1835 23.2314 92.4115 22.9143 92.5774C22.5971 92.7411 22.1918 92.823 21.6985 92.823H19.9572V92.1265H21.6736C22.0136 92.1265 22.2872 92.0767 22.4945 91.9772C22.7039 91.8777 22.8552 91.7368 22.9485 91.5544C23.0438 91.3699 23.0915 91.1501 23.0915 90.8952C23.0915 90.6402 23.0438 90.4173 22.9485 90.2266C22.8531 90.0359 22.7008 89.8887 22.4914 89.7851C22.282 89.6794 22.0053 89.6265 21.6612 89.6265H20.3055V95.3105H19.5343ZM22.5318 92.4499L24.099 95.3105H23.2034L21.6612 92.4499H22.5318ZM26.9246 95.41C26.4935 95.41 26.1152 95.3074 25.7897 95.1022C25.4663 94.897 25.2134 94.6099 25.031 94.2409C24.8507 93.8719 24.7605 93.4407 24.7605 92.9474C24.7605 92.4499 24.8507 92.0156 25.031 91.6445C25.2134 91.2735 25.4663 90.9853 25.7897 90.7801C26.1152 90.5749 26.4935 90.4723 26.9246 90.4723C27.3558 90.4723 27.7331 90.5749 28.0565 90.7801C28.3819 90.9853 28.6348 91.2735 28.8152 91.6445C28.9976 92.0156 29.0888 92.4499 29.0888 92.9474C29.0888 93.4407 28.9976 93.8719 28.8152 94.2409C28.6348 94.6099 28.3819 94.897 28.0565 95.1022C27.7331 95.3074 27.3558 95.41 26.9246 95.41ZM26.9246 94.7509C27.2522 94.7509 27.5217 94.6669 27.7331 94.499C27.9445 94.3311 28.101 94.1103 28.2026 93.8367C28.3042 93.563 28.355 93.2666 28.355 92.9474C28.355 92.6281 28.3042 92.3307 28.2026 92.055C28.101 91.7793 27.9445 91.5564 27.7331 91.3865C27.5217 91.2165 27.2522 91.1315 26.9246 91.1315C26.5971 91.1315 26.3276 91.2165 26.1162 91.3865C25.9048 91.5564 25.7482 91.7793 25.6467 92.055C25.5451 92.3307 25.4943 92.6281 25.4943 92.9474C25.4943 93.2666 25.5451 93.563 25.6467 93.8367C25.7482 94.1103 25.9048 94.3311 26.1162 94.499C26.3276 94.6669 26.5971 94.7509 26.9246 94.7509ZM30.209 95.3105V90.5345H30.9179V91.2559H30.9677C31.0547 91.0195 31.2123 90.8278 31.4403 90.6806C31.6683 90.5334 31.9254 90.4598 32.2114 90.4598C32.2653 90.4598 32.3327 90.4609 32.4136 90.463C32.4944 90.465 32.5556 90.4681 32.597 90.4723V91.2185C32.5721 91.2123 32.5151 91.203 32.426 91.1906C32.3389 91.176 32.2467 91.1688 32.1493 91.1688C31.9171 91.1688 31.7098 91.2175 31.5274 91.3149C31.347 91.4103 31.204 91.543 31.0983 91.7129C30.9946 91.8809 30.9428 92.0726 30.9428 92.2882V95.3105H30.209ZM35.2618 95.41C34.8306 95.41 34.4523 95.3074 34.1269 95.1022C33.8035 94.897 33.5506 94.6099 33.3682 94.2409C33.1878 93.8719 33.0976 93.4407 33.0976 92.9474C33.0976 92.4499 33.1878 92.0156 33.3682 91.6445C33.5506 91.2735 33.8035 90.9853 34.1269 90.7801C34.4523 90.5749 34.8306 90.4723 35.2618 90.4723C35.693 90.4723 36.0702 90.5749 36.3936 90.7801C36.7191 90.9853 36.972 91.2735 37.1523 91.6445C37.3347 92.0156 37.426 92.4499 37.426 92.9474C37.426 93.4407 37.3347 93.8719 37.1523 94.2409C36.972 94.6099 36.7191 94.897 36.3936 95.1022C36.0702 95.3074 35.693 95.41 35.2618 95.41ZM35.2618 94.7509C35.5893 94.7509 35.8588 94.6669 36.0702 94.499C36.2817 94.3311 36.4382 94.1103 36.5398 93.8367C36.6413 93.563 36.6921 93.2666 36.6921 92.9474C36.6921 92.6281 36.6413 92.3307 36.5398 92.055C36.4382 91.7793 36.2817 91.5564 36.0702 91.3865C35.8588 91.2165 35.5893 91.1315 35.2618 91.1315C34.9343 91.1315 34.6648 91.2165 34.4533 91.3865C34.2419 91.5564 34.0854 91.7793 33.9838 92.055C33.8822 92.3307 33.8315 92.6281 33.8315 92.9474C33.8315 93.2666 33.8822 93.563 33.9838 93.8367C34.0854 94.1103 34.2419 94.3311 34.4533 94.499C34.6648 94.6669 34.9343 94.7509 35.2618 94.7509ZM39.2799 92.4374V95.3105H38.5461V90.5345H39.2551V91.2807H39.3173C39.4292 91.0382 39.5992 90.8433 39.8272 90.6962C40.0552 90.5469 40.3496 90.4723 40.7103 90.4723C41.0337 90.4723 41.3166 90.5386 41.5592 90.6713C41.8017 90.8019 41.9903 91.0009 42.1251 91.2683C42.2598 91.5336 42.3272 91.8694 42.3272 92.2757V95.3105H41.5934V92.3255C41.5934 91.9503 41.4959 91.658 41.3011 91.4486C41.1062 91.2372 40.8388 91.1315 40.4988 91.1315C40.2646 91.1315 40.0552 91.1823 39.8707 91.2838C39.6883 91.3854 39.5442 91.5336 39.4385 91.7285C39.3328 91.9233 39.2799 92.1597 39.2799 92.4374ZM45.6084 95.41C45.1772 95.41 44.7989 95.3074 44.4735 95.1022C44.1501 94.897 43.8972 94.6099 43.7148 94.2409C43.5344 93.8719 43.4442 93.4407 43.4442 92.9474C43.4442 92.4499 43.5344 92.0156 43.7148 91.6445C43.8972 91.2735 44.1501 90.9853 44.4735 90.7801C44.7989 90.5749 45.1772 90.4723 45.6084 90.4723C46.0396 90.4723 46.4169 90.5749 46.7402 90.7801C47.0657 90.9853 47.3186 91.2735 47.4989 91.6445C47.6814 92.0156 47.7726 92.4499 47.7726 92.9474C47.7726 93.4407 47.6814 93.8719 47.4989 94.2409C47.3186 94.6099 47.0657 94.897 46.7402 95.1022C46.4169 95.3074 46.0396 95.41 45.6084 95.41ZM45.6084 94.7509C45.9359 94.7509 46.2054 94.6669 46.4169 94.499C46.6283 94.3311 46.7848 94.1103 46.8864 93.8367C46.988 93.563 47.0387 93.2666 47.0387 92.9474C47.0387 92.6281 46.988 92.3307 46.8864 92.055C46.7848 91.7793 46.6283 91.5564 46.4169 91.3865C46.2054 91.2165 45.9359 91.1315 45.6084 91.1315C45.2809 91.1315 45.0114 91.2165 44.8 91.3865C44.5885 91.5564 44.432 91.7793 44.3304 92.055C44.2289 92.3307 44.1781 92.6281 44.1781 92.9474C44.1781 93.2666 44.2289 93.563 44.3304 93.8367C44.432 94.1103 44.5885 94.3311 44.8 94.499C45.0114 94.6669 45.2809 94.7509 45.6084 94.7509ZM50.2982 95.4225C49.9955 95.4225 49.7209 95.3655 49.4742 95.2515C49.2275 95.1354 49.0316 94.9685 48.8865 94.7509C48.7414 94.5311 48.6689 94.2658 48.6689 93.9548C48.6689 93.6812 48.7228 93.4594 48.8305 93.2894C48.9383 93.1174 49.0824 92.9826 49.2628 92.8852C49.4431 92.7878 49.6421 92.7152 49.8598 92.6675C50.0795 92.6178 50.3003 92.5784 50.5221 92.5494C50.8123 92.5121 51.0476 92.4841 51.2279 92.4654C51.4103 92.4447 51.543 92.4105 51.6259 92.3628C51.7109 92.3151 51.7534 92.2322 51.7534 92.1141V92.0892C51.7534 91.7824 51.6695 91.544 51.5015 91.374C51.3357 91.204 51.0838 91.119 50.746 91.119C50.3956 91.119 50.121 91.1957 49.922 91.3491C49.723 91.5025 49.583 91.6663 49.5022 91.8404L48.8057 91.5917C48.93 91.3015 49.0959 91.0755 49.3032 90.9138C49.5125 90.7501 49.7406 90.636 49.9873 90.5718C50.236 90.5054 50.4806 90.4723 50.7211 90.4723C50.8745 90.4723 51.0507 90.4909 51.2497 90.5283C51.4508 90.5635 51.6446 90.6371 51.8311 90.749C52.0198 90.861 52.1763 91.0299 52.3007 91.2559C52.425 91.4818 52.4872 91.7845 52.4872 92.1638V95.3105H51.7534V94.6638H51.7161C51.6663 94.7674 51.5834 94.8783 51.4673 94.9965C51.3513 95.1147 51.1968 95.2152 51.004 95.2981C50.8112 95.381 50.576 95.4225 50.2982 95.4225ZM50.4101 94.7633C50.7003 94.7633 50.945 94.7063 51.144 94.5923C51.345 94.4783 51.4964 94.3311 51.5979 94.1507C51.7016 93.9704 51.7534 93.7807 51.7534 93.5817V92.9101C51.7223 92.9474 51.6539 92.9816 51.5482 93.0127C51.4445 93.0417 51.3243 93.0676 51.1875 93.0904C51.0527 93.1111 50.9211 93.1298 50.7926 93.1464C50.6661 93.1609 50.5635 93.1733 50.4848 93.1837C50.294 93.2086 50.1158 93.249 49.9499 93.305C49.7862 93.3589 49.6535 93.4407 49.5519 93.5506C49.4524 93.6584 49.4027 93.8056 49.4027 93.9922C49.4027 94.2471 49.497 94.4399 49.6856 94.5705C49.8763 94.699 50.1178 94.7633 50.4101 94.7633ZM56.1773 95.3105V94.7509L59.6101 89.6265H56.14V88.9424H60.5305V89.5021L57.0977 94.6265H60.5678V95.3105H56.1773ZM63.7021 95.41C63.271 95.41 62.8927 95.3074 62.5672 95.1022C62.2438 94.897 61.9909 94.6099 61.8085 94.2409C61.6282 93.8719 61.538 93.4407 61.538 92.9474C61.538 92.4499 61.6282 92.0156 61.8085 91.6445C61.9909 91.2735 62.2438 90.9853 62.5672 90.7801C62.8927 90.5749 63.271 90.4723 63.7021 90.4723C64.1333 90.4723 64.5106 90.5749 64.834 90.7801C65.1594 90.9853 65.4123 91.2735 65.5927 91.6445C65.7751 92.0156 65.8663 92.4499 65.8663 92.9474C65.8663 93.4407 65.7751 93.8719 65.5927 94.2409C65.4123 94.6099 65.1594 94.897 64.834 95.1022C64.5106 95.3074 64.1333 95.41 63.7021 95.41ZM63.7021 94.7509C64.0297 94.7509 64.2992 94.6669 64.5106 94.499C64.722 94.3311 64.8785 94.1103 64.9801 93.8367C65.0817 93.563 65.1325 93.2666 65.1325 92.9474C65.1325 92.6281 65.0817 92.3307 64.9801 92.055C64.8785 91.7793 64.722 91.5564 64.5106 91.3865C64.2992 91.2165 64.0297 91.1315 63.7021 91.1315C63.3746 91.1315 63.1051 91.2165 62.8937 91.3865C62.6823 91.5564 62.5257 91.7793 62.4242 92.055C62.3226 92.3307 62.2718 92.6281 62.2718 92.9474C62.2718 93.2666 62.3226 93.563 62.4242 93.8367C62.5257 94.1103 62.6823 94.3311 62.8937 94.499C63.1051 94.6669 63.3746 94.7509 63.7021 94.7509ZM66.9865 95.3105V90.5345H67.6954V91.2559H67.7452C67.8322 91.0195 67.9898 90.8278 68.2178 90.6806C68.4458 90.5334 68.7029 90.4598 68.9889 90.4598C69.0428 90.4598 69.1102 90.4609 69.1911 90.463C69.2719 90.465 69.3331 90.4681 69.3745 90.4723V91.2185C69.3496 91.2123 69.2926 91.203 69.2035 91.1906C69.1164 91.176 69.0242 91.1688 68.9268 91.1688C68.6946 91.1688 68.4873 91.2175 68.3049 91.3149C68.1245 91.4103 67.9815 91.543 67.8758 91.7129C67.7721 91.8809 67.7203 92.0726 67.7203 92.2882V95.3105H66.9865ZM72.0393 95.41C71.6081 95.41 71.2298 95.3074 70.9044 95.1022C70.581 94.897 70.3281 94.6099 70.1457 94.2409C69.9653 93.8719 69.8751 93.4407 69.8751 92.9474C69.8751 92.4499 69.9653 92.0156 70.1457 91.6445C70.3281 91.2735 70.581 90.9853 70.9044 90.7801C71.2298 90.5749 71.6081 90.4723 72.0393 90.4723C72.4705 90.4723 72.8477 90.5749 73.1711 90.7801C73.4966 90.9853 73.7495 91.2735 73.9298 91.6445C74.1122 92.0156 74.2035 92.4499 74.2035 92.9474C74.2035 93.4407 74.1122 93.8719 73.9298 94.2409C73.7495 94.6099 73.4966 94.897 73.1711 95.1022C72.8477 95.3074 72.4705 95.41 72.0393 95.41ZM72.0393 94.7509C72.3668 94.7509 72.6363 94.6669 72.8477 94.499C73.0592 94.3311 73.2157 94.1103 73.3173 93.8367C73.4188 93.563 73.4696 93.2666 73.4696 92.9474C73.4696 92.6281 73.4188 92.3307 73.3173 92.055C73.2157 91.7793 73.0592 91.5564 72.8477 91.3865C72.6363 91.2165 72.3668 91.1315 72.0393 91.1315C71.7118 91.1315 71.4423 91.2165 71.2308 91.3865C71.0194 91.5564 70.8629 91.7793 70.7613 92.055C70.6597 92.3307 70.609 92.6281 70.609 92.9474C70.609 93.2666 70.6597 93.563 70.7613 93.8367C70.8629 94.1103 71.0194 94.3311 71.2308 94.499C71.4423 94.6669 71.7118 94.7509 72.0393 94.7509Z" fill="white"/>
<path opacity="0.501883" d="M23.8164 80.8021H23.1555C23.1164 80.6119 23.048 80.4449 22.9502 80.301C22.8543 80.1571 22.737 80.0362 22.5984 79.9385C22.4616 79.839 22.3097 79.7644 22.1427 79.7146C21.9757 79.6649 21.8015 79.64 21.6203 79.64C21.2898 79.64 20.9904 79.7235 20.7221 79.8905C20.4556 80.0576 20.2433 80.3037 20.0851 80.6288C19.9288 80.954 19.8506 81.3529 19.8506 81.8255C19.8506 82.2981 19.9288 82.697 20.0851 83.0222C20.2433 83.3473 20.4556 83.5934 20.7221 83.7605C20.9904 83.9275 21.2898 84.011 21.6203 84.011C21.8015 84.011 21.9757 83.9861 22.1427 83.9364C22.3097 83.8866 22.4616 83.8129 22.5984 83.7151C22.737 83.6156 22.8543 83.4939 22.9502 83.35C23.048 83.2043 23.1164 83.0373 23.1555 82.8489H23.8164C23.7667 83.1279 23.6761 83.3775 23.5446 83.5979C23.4131 83.8182 23.2496 84.0057 23.0542 84.1602C22.8587 84.313 22.6393 84.4294 22.3959 84.5094C22.1542 84.5893 21.8957 84.6293 21.6203 84.6293C21.1548 84.6293 20.7408 84.5156 20.3783 84.2882C20.0158 84.0607 19.7307 83.7374 19.5228 83.318C19.3149 82.8987 19.2109 82.4012 19.2109 81.8255C19.2109 81.2498 19.3149 80.7523 19.5228 80.333C19.7307 79.9136 20.0158 79.5903 20.3783 79.3628C20.7408 79.1354 21.1548 79.0217 21.6203 79.0217C21.8957 79.0217 22.1542 79.0617 22.3959 79.1416C22.6393 79.2216 22.8587 79.3388 23.0542 79.4934C23.2496 79.6462 23.4131 79.8328 23.5446 80.0531C23.6761 80.2717 23.7667 80.5213 23.8164 80.8021ZM26.0039 84.6506C25.7445 84.6506 25.5091 84.6018 25.2976 84.504C25.0862 84.4045 24.9183 84.2615 24.7939 84.0749C24.6695 83.8866 24.6073 83.6592 24.6073 83.3927C24.6073 83.1581 24.6535 82.968 24.7459 82.8223C24.8383 82.6748 24.9618 82.5593 25.1164 82.4758C25.271 82.3923 25.4416 82.3301 25.6281 82.2892C25.8165 82.2466 26.0057 82.2128 26.1958 82.188C26.4446 82.156 26.6462 82.132 26.8008 82.116C26.9572 82.0982 27.0709 82.0689 27.142 82.0281C27.2148 81.9872 27.2512 81.9161 27.2512 81.8148V81.7935C27.2512 81.5305 27.1793 81.3262 27.0354 81.1805C26.8932 81.0348 26.6773 80.962 26.3877 80.962C26.0874 80.962 25.852 81.0277 25.6814 81.1592C25.5109 81.2907 25.3909 81.431 25.3216 81.5803L24.7246 81.3671C24.8312 81.1183 24.9734 80.9247 25.1511 80.7861C25.3305 80.6457 25.526 80.548 25.7374 80.4929C25.9506 80.436 26.1603 80.4076 26.3664 80.4076C26.4979 80.4076 26.6489 80.4236 26.8195 80.4556C26.9918 80.4858 27.158 80.5489 27.3179 80.6448C27.4796 80.7408 27.6137 80.8856 27.7203 81.0792C27.8269 81.2729 27.8802 81.5323 27.8802 81.8575V84.5547H27.2512V84.0003H27.2193C27.1766 84.0892 27.1055 84.1842 27.006 84.2855C26.9065 84.3868 26.7742 84.473 26.6089 84.544C26.4437 84.6151 26.242 84.6506 26.0039 84.6506ZM26.0999 84.0856C26.3486 84.0856 26.5583 84.0367 26.7289 83.939C26.9012 83.8413 27.0309 83.7151 27.118 83.5606C27.2068 83.406 27.2512 83.2434 27.2512 83.0728V82.4971C27.2246 82.5291 27.166 82.5584 27.0753 82.5851C26.9865 82.61 26.8834 82.6322 26.7662 82.6517C26.6507 82.6695 26.5379 82.6855 26.4277 82.6997C26.3193 82.7121 26.2314 82.7228 26.1638 82.7317C26.0004 82.753 25.8476 82.7876 25.7054 82.8356C25.5651 82.8818 25.4513 82.952 25.3643 83.0462C25.279 83.1386 25.2363 83.2647 25.2363 83.4246C25.2363 83.6432 25.3172 83.8084 25.4789 83.9204C25.6423 84.0305 25.8493 84.0856 26.0999 84.0856ZM29.0283 84.5547V80.4609H29.636V81.0792H29.6786C29.7532 80.8767 29.8883 80.7123 30.0837 80.5862C30.2792 80.46 30.4995 80.3969 30.7447 80.3969C30.7909 80.3969 30.8486 80.3978 30.9179 80.3996C30.9872 80.4014 31.0396 80.404 31.0752 80.4076V81.0473C31.0539 81.0419 31.005 81.0339 30.9286 81.0233C30.854 81.0108 30.7749 81.0046 30.6914 81.0046C30.4924 81.0046 30.3147 81.0464 30.1583 81.1299C30.0038 81.2116 29.8812 81.3253 29.7905 81.471C29.7017 81.6149 29.6573 81.7793 29.6573 81.9641V84.5547H29.0283ZM33.242 84.64C32.9009 84.64 32.5997 84.5538 32.3385 84.3814C32.0773 84.2073 31.873 83.9621 31.7255 83.6458C31.578 83.3278 31.5043 82.952 31.5043 82.5185C31.5043 82.0885 31.578 81.7153 31.7255 81.3991C31.873 81.0828 32.0782 80.8385 32.3412 80.6661C32.6041 80.4938 32.908 80.4076 33.2527 80.4076C33.5192 80.4076 33.7297 80.452 33.8843 80.5409C34.0407 80.6279 34.1597 80.7274 34.2415 80.8394C34.325 80.9495 34.3898 81.0401 34.436 81.1112H34.4893V79.0963H35.1183V84.5547H34.5106V83.9257H34.436C34.3898 84.0003 34.3241 84.0945 34.2388 84.2082C34.1535 84.3201 34.0318 84.4205 33.8737 84.5094C33.7155 84.5964 33.505 84.64 33.242 84.64ZM33.3273 84.0749C33.5796 84.0749 33.7928 84.0092 33.9669 83.8777C34.1411 83.7445 34.2734 83.5606 34.3641 83.326C34.4547 83.0897 34.5 82.817 34.5 82.5078C34.5 82.2022 34.4556 81.9348 34.3667 81.7056C34.2779 81.4746 34.1464 81.2951 33.9723 81.1672C33.7981 81.0375 33.5831 80.9726 33.3273 80.9726C33.0608 80.9726 32.8387 81.041 32.661 81.1779C32.4851 81.3129 32.3527 81.4968 32.2639 81.7296C32.1768 81.9605 32.1333 82.22 32.1333 82.5078C32.1333 82.7992 32.1777 83.0639 32.2665 83.302C32.3571 83.5383 32.4904 83.7267 32.6663 83.8671C32.844 84.0057 33.0643 84.0749 33.3273 84.0749ZM38.5538 84.5547V79.0963H39.2148V81.527H42.1252V79.0963H42.7862V84.5547H42.1252V82.1133H39.2148V84.5547H38.5538ZM45.6873 84.64C45.3177 84.64 44.9934 84.552 44.7144 84.3761C44.4373 84.2002 44.2205 83.9541 44.0641 83.6379C43.9095 83.3216 43.8323 82.952 43.8323 82.5291C43.8323 82.1027 43.9095 81.7304 44.0641 81.4124C44.2205 81.0943 44.4373 80.8474 44.7144 80.6715C44.9934 80.4956 45.3177 80.4076 45.6873 80.4076C46.0568 80.4076 46.3802 80.4956 46.6574 80.6715C46.9364 80.8474 47.1531 81.0943 47.3077 81.4124C47.4641 81.7304 47.5422 82.1027 47.5422 82.5291C47.5422 82.952 47.4641 83.3216 47.3077 83.6379C47.1531 83.9541 46.9364 84.2002 46.6574 84.3761C46.3802 84.552 46.0568 84.64 45.6873 84.64ZM45.6873 84.0749C45.968 84.0749 46.199 84.003 46.3802 83.8591C46.5614 83.7151 46.6956 83.5259 46.7827 83.2914C46.8697 83.0568 46.9133 82.8027 46.9133 82.5291C46.9133 82.2555 46.8697 82.0005 46.7827 81.7642C46.6956 81.5279 46.5614 81.3369 46.3802 81.1912C46.199 81.0455 45.968 80.9726 45.6873 80.9726C45.4065 80.9726 45.1755 81.0455 44.9943 81.1912C44.8131 81.3369 44.6789 81.5279 44.5918 81.7642C44.5048 82.0005 44.4612 82.2555 44.4612 82.5291C44.4612 82.8027 44.5048 83.0568 44.5918 83.2914C44.6789 83.5259 44.8131 83.7151 44.9943 83.8591C45.1755 84.003 45.4065 84.0749 45.6873 84.0749ZM49.1314 79.0963V84.5547H48.5024V79.0963H49.1314ZM51.8293 84.64C51.4881 84.64 51.1869 84.5538 50.9257 84.3814C50.6646 84.2073 50.4602 83.9621 50.3127 83.6458C50.1653 83.3278 50.0915 82.952 50.0915 82.5185C50.0915 82.0885 50.1653 81.7153 50.3127 81.3991C50.4602 81.0828 50.6654 80.8385 50.9284 80.6661C51.1914 80.4938 51.4952 80.4076 51.8399 80.4076C52.1064 80.4076 52.317 80.452 52.4716 80.5409C52.6279 80.6279 52.747 80.7274 52.8287 80.8394C52.9122 80.9495 52.9771 81.0401 53.0233 81.1112H53.0766V79.0963H53.7056V84.5547H53.0979V83.9257H53.0233C52.9771 84.0003 52.9113 84.0945 52.826 84.2082C52.7408 84.3201 52.619 84.4205 52.4609 84.5094C52.3028 84.5964 52.0922 84.64 51.8293 84.64ZM51.9145 84.0749C52.1668 84.0749 52.3801 84.0092 52.5542 83.8777C52.7283 83.7445 52.8607 83.5606 52.9513 83.326C53.0419 83.0897 53.0872 82.817 53.0872 82.5078C53.0872 82.2022 53.0428 81.9348 52.954 81.7056C52.8651 81.4746 52.7337 81.2951 52.5595 81.1672C52.3854 81.0375 52.1704 80.9726 51.9145 80.9726C51.648 80.9726 51.4259 81.041 51.2482 81.1779C51.0723 81.3129 50.94 81.4968 50.8511 81.7296C50.7641 81.9605 50.7205 82.22 50.7205 82.5078C50.7205 82.7992 50.7649 83.0639 50.8538 83.302C50.9444 83.5383 51.0777 83.7267 51.2536 83.8671C51.4312 84.0057 51.6516 84.0749 51.9145 84.0749ZM56.6613 84.64C56.2668 84.64 55.9266 84.5529 55.6405 84.3788C55.3562 84.2029 55.1368 83.9577 54.9822 83.6432C54.8294 83.3269 54.753 82.9591 54.753 82.5398C54.753 82.1205 54.8294 81.7509 54.9822 81.431C55.1368 81.1094 55.3518 80.8589 55.6272 80.6795C55.9044 80.4982 56.2278 80.4076 56.5973 80.4076C56.8106 80.4076 57.0211 80.4431 57.229 80.5142C57.4369 80.5853 57.6261 80.7008 57.7967 80.8607C57.9673 81.0188 58.1032 81.2285 58.2045 81.4897C58.3057 81.7509 58.3564 82.0725 58.3564 82.4545V82.721H55.2008V82.1773H57.7167C57.7167 81.9463 57.6705 81.7402 57.5781 81.559C57.4875 81.3777 57.3578 81.2347 57.189 81.1299C57.022 81.025 56.8248 80.9726 56.5973 80.9726C56.3468 80.9726 56.13 81.0348 55.947 81.1592C55.7658 81.2818 55.6263 81.4417 55.5286 81.6389C55.4309 81.8362 55.382 82.0476 55.382 82.2733V82.6357C55.382 82.9449 55.4353 83.207 55.5419 83.422C55.6503 83.6352 55.8004 83.7978 55.9923 83.9097C56.1842 84.0199 56.4072 84.0749 56.6613 84.0749C56.8265 84.0749 56.9758 84.0518 57.1091 84.0057C57.2441 83.9577 57.3605 83.8866 57.4582 83.7924C57.5559 83.6965 57.6314 83.5774 57.6847 83.4353L58.2924 83.6059C58.2285 83.812 58.121 83.9932 57.9699 84.1496C57.8189 84.3042 57.6323 84.425 57.4102 84.512C57.1881 84.5973 56.9385 84.64 56.6613 84.64ZM59.3132 84.5547V80.4609H59.9209V81.0792H59.9635C60.0381 80.8767 60.1732 80.7123 60.3686 80.5862C60.5641 80.46 60.7844 80.3969 61.0296 80.3969C61.0758 80.3969 61.1335 80.3978 61.2028 80.3996C61.2721 80.4014 61.3245 80.404 61.3601 80.4076V81.0473C61.3388 81.0419 61.2899 81.0339 61.2135 81.0233C61.1389 81.0108 61.0598 81.0046 60.9763 81.0046C60.7773 81.0046 60.5996 81.0464 60.4432 81.1299C60.2887 81.2116 60.1661 81.3253 60.0754 81.471C59.9866 81.6149 59.9422 81.7793 59.9422 81.9641V84.5547H59.3132Z" fill="white"/>
</g>
<defs>
<linearGradient id="paint0_linear_136_1652" x1="95.7223" y1="-18.6644" x2="99.8856" y2="126.67" gradientUnits="userSpaceOnUse">
<stop stop-color="#66EC84"/>
<stop offset="1" stop-color="#00AE3B"/>
</linearGradient>
<radialGradient id="paint1_radial_136_1652" cx="0" cy="0" r="1" gradientUnits="userSpaceOnUse" gradientTransform="translate(30.6155 22.5244) rotate(141.302) scale(13.991 13.8849)">
<stop stop-color="white"/>
<stop offset="1" stop-color="#DDDCDA"/>
</radialGradient>
<clipPath id="clip0_136_1652">
<rect width="73.1763" height="22.5158" fill="white" transform="translate(18.7632 75.0527)"/>
</clipPath>
</defs>
</svg>
