<svg width="80" height="58" viewBox="0 0 80 58" fill="none" xmlns="http://www.w3.org/2000/svg">
<g clip-path="url(#clip0_136_1608)">
<path d="M2.875 16.0415C2.875 14.7305 4.155 13.6665 5.78991 13.6665H63.9601C64.3426 13.6659 64.7215 13.7269 65.0751 13.8459C65.4288 13.965 65.7501 14.1398 66.0209 14.3604C66.2916 14.581 66.5064 14.8431 66.653 15.1315C66.7996 15.42 66.875 15.7292 66.875 16.0415V49.2915C66.875 50.6025 65.595 51.6665 63.9601 51.6665H5.78991C5.40739 51.6671 5.02848 51.6062 4.67486 51.4871C4.32124 51.368 3.99986 51.1932 3.72911 50.9726C3.45836 50.752 3.24356 50.4899 3.097 50.2015C2.95044 49.913 2.875 49.6038 2.875 49.2915V16.0415ZM2.875 23.1665H66.875V27.9165H2.875V23.1665ZM14.5114 39.7915H20.3295V40.979H14.5114V39.7915ZM29.0568 39.7915H46.5114V40.979H29.0568V39.7915Z" stroke="#979797" stroke-width="5"/>
</g>
<defs>
<clipPath id="clip0_136_1608">
<rect width="69" height="58" fill="white"/>
</clipPath>
</defs>
</svg>
