<svg width="31" height="38" viewBox="0 0 31 38" fill="none" xmlns="http://www.w3.org/2000/svg">
<path d="M8.06561 11.3588C8.40701 11.3588 8.70573 11.2032 8.96179 10.892C9.21784 10.5808 9.34586 10.2177 9.34586 9.80281C9.34586 9.38788 9.21784 9.02481 8.96179 8.71361C8.70573 8.40241 8.40701 8.24681 8.06561 8.24681C7.72421 8.24681 7.42548 8.40241 7.16943 8.71361C6.91338 9.02481 6.78535 9.38788 6.78535 9.80281C6.78535 10.2177 6.91338 10.5808 7.16943 10.892C7.42548 11.2032 7.72421 11.3588 8.06561 11.3588ZM8.06561 20.228C8.40701 20.228 8.70573 20.0724 8.96179 19.7612C9.21784 19.45 9.34586 19.087 9.34586 18.672C9.34586 18.2571 9.21784 17.894 8.96179 17.5828C8.70573 17.2716 8.40701 17.116 8.06561 17.116C7.72421 17.116 7.42548 17.2716 7.16943 17.5828C6.91338 17.894 6.78535 18.2571 6.78535 18.672C6.78535 19.087 6.91338 19.45 7.16943 19.7612C7.42548 20.0724 7.72421 20.228 8.06561 20.228ZM8.06561 29.0972C8.40701 29.0972 8.70573 28.9416 8.96179 28.6304C9.21784 28.3192 9.34586 27.9562 9.34586 27.5412C9.34586 27.1263 9.21784 26.7632 8.96179 26.452C8.70573 26.1408 8.40701 25.9852 8.06561 25.9852C7.72421 25.9852 7.42548 26.1408 7.16943 26.452C6.91338 26.7632 6.78535 27.1263 6.78535 27.5412C6.78535 27.9562 6.91338 28.3192 7.16943 28.6304C7.42548 28.9416 7.72421 29.0972 8.06561 29.0972ZM2.56051 37.344C1.87771 37.344 1.28026 37.0328 0.768153 36.4104C0.256051 35.788 0 35.0619 0 34.232V3.112C0 2.28214 0.256051 1.556 0.768153 0.933601C1.28026 0.3112 1.87771 0 2.56051 0H22.2764L30.7261 10.2696V34.232C30.7261 35.0619 30.4701 35.788 29.958 36.4104C29.4459 37.0328 28.8484 37.344 28.1656 37.344H2.56051ZM2.56051 34.232H28.1656V12.0035H20.8682V3.112H2.56051V34.232Z" fill="white"/>
</svg>
