<svg width="50" height="38" viewBox="0 0 50 38" fill="none" xmlns="http://www.w3.org/2000/svg">
<mask id="mask0_373_4933" style="mask-type:luminance" maskUnits="userSpaceOnUse" x="0" y="0" width="50" height="38">
<path d="M0 0H49.0168V38H0V0Z" fill="white"/>
</mask>
<g mask="url(#mask0_373_4933)">
<path d="M6.47293 38C5.92825 38 5.49499 37.5559 5.49499 37.0237C5.49499 34.2155 5.6505 32.0625 6.2168 30.3087H0.982824C0.449779 30.3087 0.00488281 29.8655 0.00488281 29.3324C0.00488281 26.7354 0.271821 25.1595 1.52751 23.9055C2.60524 22.8286 4.32828 22.1409 7.2172 21.3417C6.23926 20.6208 5.5058 19.3326 5.16153 17.8907C4.91704 16.8911 4.85051 15.815 4.98357 14.783C5.12826 13.7178 5.5058 12.685 6.15028 11.875C7.00598 10.7873 8.30657 10.0879 10.1286 10.0879C11.9514 10.0879 13.2512 10.7873 14.1069 11.875C14.7513 12.685 15.1297 13.7178 15.2736 14.783C15.4183 15.815 15.3401 16.8911 15.0964 17.8907C14.7513 19.3326 14.0295 20.6208 13.0516 21.3417C13.8399 21.553 14.5518 21.775 15.1738 21.9854C15.8964 22.2299 16.5076 22.4735 17.0407 22.7405C17.9296 22.4627 18.8968 22.1966 19.9296 21.908V20.8869C17.8856 19.7551 16.3405 17.1797 15.6295 14.2275C15.1738 12.3748 15.0407 10.3657 15.296 8.44555C15.563 6.49217 16.2407 4.6394 17.4074 3.16334C18.93 1.25403 21.241 0 24.5083 0C27.7756 0 30.0866 1.25403 31.6092 3.16334C32.7759 4.6394 33.4536 6.49217 33.7206 8.44555C33.9759 10.3657 33.8428 12.3748 33.3871 14.2275C32.6761 17.1797 31.131 19.7551 29.087 20.8869V21.908C30.1198 22.1966 31.0869 22.4627 31.9759 22.7405C32.509 22.4735 33.1202 22.2299 33.8428 21.9854C34.4648 21.775 35.1767 21.5638 35.965 21.3417C34.9871 20.6208 34.2653 19.3326 33.921 17.8907C33.6765 16.8911 33.5983 15.815 33.743 14.783C33.8869 13.7178 34.2653 12.685 34.9097 11.875C35.7654 10.7873 37.0652 10.0879 38.888 10.0879C40.71 10.0879 42.0106 10.7873 42.8663 11.875C43.5108 12.685 43.8883 13.7178 44.033 14.783C44.1661 15.815 44.0996 16.8911 43.8551 17.8907C43.5108 19.3326 42.7773 20.6208 41.7994 21.3417C44.6883 22.1409 46.4114 22.8286 47.4891 23.9055C48.7448 25.1595 49.0117 26.7354 49.0117 29.3324C49.0117 29.8655 48.5668 30.3087 48.0338 30.3087H42.7998C43.3661 32.0625 43.5216 34.2155 43.5216 37.0237C43.5216 37.5559 43.0883 38 42.5437 38H6.47293ZM41.5549 36.0358C41.51 33.339 41.2772 31.3964 40.5213 29.9095C40.4655 29.8322 40.4215 29.7432 40.3882 29.6542C40.1321 29.1886 39.8102 28.7553 39.4103 28.3669C37.5542 26.5133 34.0765 25.2701 27.8978 23.6169C27.4529 23.528 27.1195 23.1288 27.1195 22.6623V20.2657C27.1195 19.8765 27.364 19.5106 27.7423 19.3551C29.487 18.6782 30.8425 16.4362 31.4869 13.7727C31.8869 12.1411 32.0092 10.3765 31.7755 8.71249C31.5651 7.09174 31.0204 5.55996 30.0757 4.3841C28.909 2.91885 27.1087 1.9642 24.5083 1.9642C21.9079 1.9642 20.1076 2.91885 18.9409 4.3841C17.9962 5.55996 17.4515 7.09174 17.2411 8.71249C17.0074 10.3765 17.1297 12.1411 17.5297 13.7727C18.1633 16.4146 19.508 18.6341 21.2194 19.3326C21.6077 19.4665 21.8971 19.8324 21.8971 20.2657V22.6623C21.8971 23.0955 21.6077 23.4839 21.1637 23.6061C14.9517 25.2701 11.4624 26.5025 9.60634 28.3669C9.20634 28.7553 8.88452 29.1886 8.6284 29.6542C8.59513 29.7432 8.55106 29.8322 8.49534 29.8987C7.73943 31.3964 7.50659 33.339 7.46168 36.0358H41.5549ZM7.11741 28.3445C7.42842 27.8672 7.78434 27.4123 8.21759 26.9907C9.529 25.6809 11.3959 24.6714 14.1185 23.6943C13.4183 23.4723 12.6183 23.2394 11.6953 22.9958C11.262 22.8735 10.9735 22.4852 10.9735 22.0519V20.8428C10.9735 20.4095 11.2512 20.0436 11.6404 19.9098C12.3514 19.5996 12.9177 18.6117 13.1954 17.435C13.385 16.6583 13.4399 15.8258 13.3401 15.0492C13.2404 14.3057 12.9959 13.6172 12.5734 13.085C12.0736 12.4521 11.2845 12.0413 10.1286 12.0413C8.98431 12.0413 8.18433 12.4521 7.68372 13.085C7.2621 13.6172 7.01762 14.3057 6.917 15.0492C6.81721 15.8258 6.87292 16.6583 7.06169 17.435C7.35025 18.6449 7.93984 19.6436 8.66166 19.9322C9.05084 20.0769 9.28451 20.4428 9.28451 20.8428V22.0519C9.28451 22.5184 8.95105 22.9176 8.50615 23.0066C5.47254 23.8165 3.78359 24.4161 2.91709 25.2818C2.26097 25.9362 2.03893 26.8684 1.98322 28.3445H7.11741ZM34.8981 23.6943C37.6207 24.6714 39.4876 25.6809 40.799 26.9907C41.2323 27.4123 41.5882 27.8672 41.8992 28.3445H47.0334C46.9777 26.8684 46.7556 25.9362 46.0995 25.2818C45.233 24.4161 43.5441 23.8165 40.5104 23.0066C40.0655 22.9176 39.7321 22.5184 39.7321 22.0519V20.8428C39.7321 20.4428 39.9658 20.0769 40.3549 19.9322C41.0767 19.6436 41.6663 18.6449 41.9549 17.435C42.1437 16.6691 42.1994 15.8258 42.0996 15.0492C41.999 14.3057 41.7545 13.6172 41.3329 13.085C40.8323 12.4521 40.0323 12.0413 38.888 12.0413C37.7321 12.0413 36.943 12.4521 36.4432 13.085C36.0207 13.6172 35.7762 14.3057 35.6765 15.0492C35.5767 15.8258 35.6315 16.6583 35.8211 17.435C36.0989 18.6117 36.6652 19.5996 37.3762 19.9098C37.7654 20.0436 38.0431 20.4095 38.0431 20.8428V22.0519C38.0431 22.4852 37.7546 22.8735 37.3213 22.9958C36.3983 23.2394 35.5983 23.4723 34.8981 23.6943Z" fill="white"/>
</g>
</svg>
