<svg width="19" height="18" viewBox="0 0 19 18" fill="none" xmlns="http://www.w3.org/2000/svg">
<path fill-rule="evenodd" clip-rule="evenodd" d="M9.50084 0.525391C7.05657 0.525391 6.74981 0.535469 5.7898 0.576668C4.83167 0.618043 4.17766 0.761089 3.60541 0.970972C3.01346 1.18775 2.51133 1.47773 2.01108 1.94966C1.51045 2.42141 1.20294 2.89493 0.972317 3.45297C0.74919 3.99279 0.597314 4.60971 0.554188 5.5129C0.51125 6.41821 0.5 6.70766 0.5 9.01266C0.5 11.3177 0.510875 11.606 0.554376 12.5114C0.598439 13.4149 0.750128 14.0316 0.972505 14.5713C1.20257 15.1295 1.51007 15.603 2.01052 16.0748C2.51058 16.5469 3.01271 16.8376 3.60428 17.0543C4.17691 17.2642 4.83111 17.4073 5.78905 17.4486C6.74906 17.4898 7.05563 17.4999 9.49972 17.4999C11.9442 17.4999 12.25 17.4898 13.21 17.4486C14.1681 17.4073 14.8229 17.2642 15.3955 17.0543C15.9873 16.8376 16.4887 16.5469 16.9887 16.0748C17.4894 15.603 17.7969 15.1295 18.0275 14.5715C18.2487 14.0316 18.4006 13.4147 18.4456 12.5115C18.4887 11.6062 18.5 11.3177 18.5 9.01266C18.5 6.70766 18.4887 6.41838 18.4456 5.51307C18.4006 4.60953 18.2487 3.99279 18.0275 3.45314C17.7969 2.89493 17.4894 2.42141 16.9887 1.94966C16.4881 1.47756 15.9875 1.18757 15.395 0.970972C14.8212 0.761089 14.1668 0.618043 13.2087 0.576668C12.2487 0.535469 11.9431 0.525391 9.49803 0.525391H9.50084ZM8.69338 2.05485C8.85015 2.05462 9.0188 2.05469 9.20079 2.05477L9.50076 2.05485C11.9038 2.05485 12.1886 2.06299 13.1375 2.10365C14.0151 2.14149 14.4913 2.27977 14.8086 2.39593C15.2286 2.54977 15.528 2.73366 15.8428 3.03071C16.1578 3.32777 16.3528 3.61067 16.5163 4.00675C16.6395 4.30557 16.7863 4.75469 16.8263 5.5822C16.8694 6.4769 16.8788 6.74566 16.8788 9.0107C16.8788 11.2757 16.8694 11.5445 16.8263 12.4392C16.7861 13.2667 16.6395 13.7158 16.5163 14.0146C16.3532 14.4107 16.1578 14.6927 15.8428 14.9896C15.5278 15.2867 15.2288 15.4706 14.8086 15.6244C14.4917 15.7411 14.0151 15.879 13.1375 15.9169C12.1888 15.9575 11.9038 15.9664 9.50076 15.9664C7.09755 15.9664 6.81273 15.9575 5.86397 15.9169C4.98646 15.8787 4.51021 15.7404 4.19277 15.6242C3.77276 15.4704 3.47276 15.2865 3.15776 14.9894C2.84275 14.6924 2.64775 14.4102 2.48425 14.0139C2.36106 13.7151 2.21425 13.266 2.17431 12.4385C2.13118 11.5438 2.12256 11.275 2.12256 9.00858C2.12256 6.74212 2.13118 6.47477 2.17431 5.58007C2.21443 4.75257 2.36106 4.30345 2.48425 4.00427C2.64738 3.6082 2.84275 3.32529 3.15776 3.02824C3.47276 2.73118 3.77276 2.54729 4.19277 2.39311C4.51002 2.27641 4.98646 2.13849 5.86397 2.10047C6.69423 2.06511 7.01598 2.0545 8.69338 2.05273V2.05485ZM13.2251 4.48228C13.2251 3.91982 13.7089 3.46416 14.3051 3.46416V3.46381C14.9014 3.46381 15.3851 3.92 15.3851 4.48228C15.3851 5.04456 14.9014 5.50075 14.3051 5.50075C13.7089 5.50075 13.2251 5.04456 13.2251 4.48228ZM9.50064 4.65404C6.94826 4.65413 4.87891 6.60564 4.87891 9.0126C4.87891 11.4196 6.94836 13.3703 9.50083 13.3703C12.0533 13.3703 14.122 11.4196 14.122 9.0126C14.122 6.60558 12.0531 4.65404 9.50064 4.65404ZM12.5008 9.01265C12.5008 7.45011 11.1575 6.18357 9.50076 6.18357C7.84381 6.18357 6.50073 7.45011 6.50073 9.01265C6.50073 10.575 7.84381 11.8417 9.50076 11.8417C11.1575 11.8417 12.5008 10.575 12.5008 9.01265Z" fill="white"/>
</svg>
