<svg width="83" height="59" viewBox="0 0 83 59" fill="none" xmlns="http://www.w3.org/2000/svg">
<path d="M40.6912 56.8569L41.4717 55.3965L42.1264 56.8569" stroke="#248724" stroke-width="0.453243"/>
<path d="M1.4939 0.528879L3.69437 1.30097L3.60086 1.89707L1.3869 1.41155L1.4939 0.528879Z" stroke="#248724" stroke-width="0.780309"/>
<mask id="mask0_253_759" style="mask-type:luminance" maskUnits="userSpaceOnUse" x="0" y="1" width="44" height="58">
<path d="M0 1.61145H43.3243V58.7245H0V1.61145Z" fill="white"/>
</mask>
<g mask="url(#mask0_253_759)">
<path d="M2.4181 1.91724L1.578 6.29803L2.4181 10.373L3.76721 12.2579L6.59281 14.0411L10.7675 15.2891L16.0619 15.9512L21.2804 16.5113L23.4439 16.8171L24.9714 17.3776L25.7604 18.3456V20.9432L25.302 21.4526H16.0619L14.8402 21.7074L13.211 22.5733L11.8619 23.6175L10.7675 24.7892L10.4112 25.5281L10.2328 25.9355L10.4112 26.445L10.7675 27.0309L11.684 28.0241L12.7783 28.8389L14.1274 29.6542L15.8329 30.2653L18.1495 30.4184L20.7456 30.2653H24.793L25.531 31.4627L26.0147 33.4492L27.746 37.5242L29.553 41.8286L31.0806 45.9552L32.3276 49.4954L33.015 51.5839L33.753 53.8251L34.2115 54.9715L35.1532 56.1432L36.477 56.8816L38.8184 57.2385H40.677L41.415 57.0853L41.6698 56.8816L41.7967 56.3216V55.8374" stroke="#248724" stroke-width="3.0555"/>
</g>
<path d="M80.4749 1.91699L81.315 6.29779L80.4749 10.3728L79.1258 12.2576L76.3002 14.0409L72.1255 15.2889L66.8311 15.951L61.6126 16.5111L59.4491 16.8169L57.9216 17.3774L57.1326 18.3453V20.9429L57.591 21.4524H66.8311L68.0528 21.7072L69.682 22.573L71.0311 23.6173L72.1255 24.7889L72.4818 25.5279L72.6603 25.9353L72.4818 26.4448L72.1255 27.0306L71.209 28.0238L70.1147 28.8386L68.7656 29.6539L67.0601 30.265L64.7435 30.4182L62.1474 30.265H58.1L57.362 31.4625L56.8783 33.4489L55.147 37.5239L53.34 41.8284L51.8124 45.9549L50.5654 49.4951L49.878 51.5837L49.14 53.8249L48.6815 54.9713L47.7398 56.1429L46.416 56.8814L44.0746 57.2382H42.216L41.478 57.0851L41.2232 56.8814L41.0963 56.3213V55.8371" stroke="#248724" stroke-width="3.0555"/>
<path d="M79.2795 1.49423L81.5844 0.973138V1.3628L79.3287 1.83876L79.2795 1.49423Z" stroke="#248724" stroke-width="0.831139"/>
</svg>
