<svg width="723" height="186" viewBox="0 0 723 186" fill="none" xmlns="http://www.w3.org/2000/svg">
<mask id="mask0_9_46" style="mask-type:luminance" maskUnits="userSpaceOnUse" x="0" y="0" width="723" height="186">
<path d="M722.069 0H0V185.29H722.069V0Z" fill="white"/>
</mask>
<g mask="url(#mask0_9_46)">
<path d="M182.563 38.957C194.103 38.957 199.884 45.1595 199.884 57.564V131.602H180.328V101.024H166.231V131.602H146.675V57.564C146.675 45.1595 152.445 38.957 163.996 38.957H182.563ZM166.231 85.7568H180.328V55.1784C180.328 54.4302 180.07 53.7799 179.554 53.2266C179.039 52.6519 178.405 52.3591 177.663 52.3591H168.852C168.1 52.3591 167.477 52.6519 166.961 53.2266C166.467 53.7799 166.231 54.4302 166.231 55.1784V85.7568Z" fill="black"/>
<path d="M286.806 81.6794C292.844 83.8483 295.874 88.8361 295.874 96.6431V112.995C295.874 125.4 290.094 131.602 278.553 131.602H242.665V40.3881H277.436C288.976 40.3881 294.757 46.5906 294.757 58.9955V67.3232C294.757 74.8481 292.103 79.6302 286.806 81.6794ZM272.536 53.7472H262.221V78.1661H272.536C273.277 78.1661 273.911 77.8953 274.427 77.342C274.943 76.7677 275.201 76.1062 275.201 75.3469V56.5665C275.201 55.8183 274.943 55.1676 274.427 54.6147C273.911 54.04 273.277 53.7472 272.536 53.7472ZM276.319 115.25V94.7781C276.319 94.0299 276.06 93.3796 275.545 92.8263C275.029 92.2516 274.395 91.9588 273.654 91.9588H262.221V118.07H273.654C274.395 118.07 275.029 117.798 275.545 117.246C276.06 116.671 276.319 116.009 276.319 115.25Z" fill="black"/>
<path d="M371.191 116.638V102.542H389.758V114.383C389.758 126.82 383.978 133.033 372.437 133.033H354.858C343.307 133.033 337.537 126.82 337.537 114.383V57.564C337.537 45.1595 343.307 38.957 354.858 38.957H372.437C383.978 38.957 389.758 45.1595 389.758 57.564V66.1952H371.191V55.1784C371.191 54.4302 370.933 53.7799 370.417 53.2266C369.902 52.6519 369.268 52.3591 368.526 52.3591H359.715C358.963 52.3591 358.34 52.6519 357.824 53.2266C357.33 53.7799 357.094 54.4302 357.094 55.1784V116.638C357.094 117.398 357.33 118.059 357.824 118.633C358.34 119.187 358.963 119.457 359.715 119.457H368.526C369.268 119.457 369.902 119.187 370.417 118.633C370.933 118.059 371.191 117.398 371.191 116.638Z" fill="black"/>
<path d="M464.955 40.3881C476.498 40.3881 482.278 46.5906 482.278 58.9955V77.1686C482.278 89.5735 476.498 95.7756 464.955 95.7756H449.139V131.602H429.584V40.3881H464.955ZM462.723 79.4242V56.7399C462.723 55.9917 462.462 55.341 461.948 54.7882C461.43 54.2134 460.797 53.9207 460.057 53.9207H449.139V82.2434H460.057C460.797 82.2434 461.43 81.9722 461.948 81.4193C462.462 80.8446 462.723 80.1831 462.723 79.4242Z" fill="black"/>
<path d="M556.186 40.3881C567.725 40.3881 573.506 46.5906 573.506 58.9955V112.995C573.506 125.4 567.725 131.602 556.186 131.602H520.297V40.3881H556.186ZM553.95 115.25V56.5665C553.95 55.8183 553.693 55.1676 553.175 54.6147C552.661 54.04 552.028 53.7472 551.284 53.7472H539.853V118.07H551.284C552.028 118.07 552.661 117.798 553.175 117.246C553.693 116.671 553.95 116.009 553.95 115.25Z" fill="black"/>
<path d="M132.467 176.8L133.455 174.458C134.078 175.011 134.83 175.455 135.69 175.803C136.571 176.128 137.42 176.28 138.226 176.28C139.279 176.28 140.225 175.976 141.063 175.369C141.922 174.762 142.352 173.894 142.352 172.766C142.352 171.791 142.019 170.966 141.363 170.294C140.729 169.6 139.956 169.058 139.042 168.646C138.118 168.245 137.205 167.822 136.292 167.388C135.4 166.933 134.626 166.293 133.971 165.479C133.337 164.677 133.025 163.68 133.025 162.487C133.025 160.817 133.649 159.516 134.916 158.583C136.173 157.629 137.667 157.152 139.386 157.152C141.192 157.152 142.954 157.662 144.673 158.67L143.383 160.535C142.062 159.613 140.729 159.147 139.386 159.147C138.323 159.147 137.463 159.407 136.807 159.928C136.141 160.448 135.819 161.229 135.819 162.27C135.819 162.856 135.991 163.376 136.335 163.832C136.679 164.298 137.119 164.688 137.667 165.003C138.205 165.328 138.806 165.642 139.472 165.957C140.128 166.25 140.783 166.586 141.449 166.954C142.137 167.301 142.749 167.713 143.298 168.169C143.835 168.635 144.286 169.231 144.63 169.947C144.974 170.641 145.146 171.454 145.146 172.376C145.146 174.317 144.469 175.791 143.126 176.8C141.772 177.819 140.117 178.318 138.14 178.318C136.303 178.318 134.412 177.819 132.467 176.8Z" fill="black"/>
<path d="M167.965 178.275C166.471 178.275 165.139 177.993 163.968 177.45C162.818 176.876 161.873 176.095 161.131 175.109C160.411 174.132 159.863 173.016 159.498 171.769C159.122 170.5 158.939 169.155 158.939 167.735C158.939 164.731 159.713 162.216 161.26 160.188C162.829 158.171 165.064 157.152 167.965 157.152C170.856 157.152 173.08 158.171 174.627 160.188C176.196 162.216 176.991 164.731 176.991 167.735C176.991 169.676 176.658 171.422 176.002 172.983C175.369 174.545 174.348 175.824 172.951 176.8C171.576 177.787 169.91 178.275 167.965 178.275ZM174.283 167.735C174.283 166.672 174.165 165.642 173.939 164.656C173.703 163.68 173.359 162.769 172.908 161.923C172.446 161.056 171.79 160.383 170.931 159.884C170.093 159.364 169.104 159.104 167.965 159.104C166.848 159.104 165.859 159.364 165 159.884C164.161 160.383 163.506 161.056 163.023 161.923C162.56 162.791 162.217 163.723 161.991 164.699C161.787 165.653 161.69 166.672 161.69 167.735C161.69 168.809 161.787 169.839 161.991 170.814C162.217 171.769 162.56 172.68 163.023 173.547C163.506 174.414 164.161 175.109 165 175.629C165.859 176.128 166.848 176.366 167.965 176.366C169.104 176.366 170.093 176.128 170.931 175.629C171.79 175.109 172.446 174.414 172.908 173.547C173.392 172.68 173.735 171.769 173.939 170.814C174.165 169.839 174.283 168.809 174.283 167.735Z" fill="black"/>
<path d="M203.497 177.971H192.322V159.277C192.322 159.256 192.279 159.104 192.193 158.844C192.128 158.562 192.075 158.258 192.021 157.933C191.957 157.618 191.935 157.445 191.935 157.412H194.944V176.019H203.497V177.971Z" fill="black"/>
<path d="M231.117 170.685V157.412H233.309V170.685C233.309 173.092 232.643 174.968 231.332 176.323C230.01 177.657 228.162 178.318 225.788 178.318C223.402 178.318 221.575 177.711 220.286 176.497C218.997 175.26 218.352 173.45 218.352 171.075V159.277L217.922 157.412H221.017V171.075C221.017 172.723 221.414 174.024 222.22 174.978C223.015 175.911 224.24 176.367 225.874 176.367C227.561 176.367 228.85 175.868 229.742 174.848C230.655 173.807 231.117 172.419 231.117 170.685Z" fill="black"/>
<mask id="mask1_9_46" style="mask-type:luminance" maskUnits="userSpaceOnUse" x="247" y="155" width="20" height="30">
<path d="M247.566 155.45H266.821V184.596H247.566V155.45Z" fill="white"/>
</mask>
<g mask="url(#mask1_9_46)">
<path d="M254.807 183.393L255.495 182.091C256.236 182.525 256.827 182.742 257.257 182.742C257.601 182.742 257.88 182.634 258.117 182.439C258.375 182.233 258.504 181.972 258.504 181.658C258.504 181.332 258.396 181.094 258.203 180.92C257.998 180.747 257.741 180.66 257.429 180.66H256.096C255.806 180.66 255.667 180.541 255.667 180.313C255.667 180.281 255.688 180.226 255.753 180.14L256.784 178.231C254.227 177.917 252.239 176.757 250.81 174.762C249.37 172.766 248.661 170.402 248.661 167.648C248.661 164.591 249.499 162.075 251.197 160.102C252.884 158.139 255.216 157.152 258.203 157.152C259.288 157.152 260.416 157.347 261.598 157.716C262.769 158.095 263.672 158.649 264.306 159.364L262.845 161.012C262.329 160.438 261.609 159.971 260.695 159.624C259.804 159.277 258.955 159.104 258.16 159.104C256.978 159.104 255.946 159.364 255.065 159.884C254.205 160.383 253.518 161.056 253.002 161.923C252.508 162.769 252.142 163.68 251.885 164.656C251.627 165.642 251.498 166.694 251.498 167.822C251.498 168.949 251.627 170.012 251.885 170.988C252.142 171.942 252.529 172.831 253.045 173.634C253.561 174.414 254.259 175.043 255.151 175.499C256.032 175.965 257.053 176.193 258.203 176.193C259.03 176.193 259.9 176.041 260.824 175.716C261.77 175.401 262.544 174.978 263.145 174.458L264.349 176.323C263.597 176.963 262.64 177.45 261.469 177.798C260.287 178.145 259.159 178.318 258.074 178.318L257.601 179.272H257.902C258.675 179.272 259.342 179.457 259.922 179.836C260.524 180.205 260.824 180.79 260.824 181.571C260.824 183.306 259.621 184.174 257.214 184.174C256.408 184.174 255.602 183.913 254.807 183.393Z" fill="black"/>
</g>
<path d="M277.767 168.559C277.767 165.87 278.604 163.571 280.302 161.663C281.989 159.755 284.149 158.8 286.792 158.8C289.393 158.8 291.542 159.755 293.239 161.663C294.927 163.571 295.775 165.87 295.775 168.559C295.775 171.248 294.927 173.547 293.239 175.456C291.542 177.364 289.393 178.318 286.792 178.318C284.149 178.318 281.989 177.364 280.302 175.456C278.604 173.547 277.767 171.248 277.767 168.559ZM286.792 176.41C288.737 176.41 290.252 175.618 291.348 174.024C292.466 172.441 293.025 170.62 293.025 168.559C293.025 166.51 292.466 164.688 291.348 163.094C290.252 161.511 288.737 160.709 286.792 160.709C285.439 160.709 284.278 161.121 283.311 161.923C282.333 162.737 281.613 163.723 281.162 164.873C280.732 166.033 280.517 167.258 280.517 168.559C280.517 170.62 281.076 172.441 282.193 174.024C283.311 175.618 284.837 176.41 286.792 176.41ZM290.059 155.374H291.391C291.305 156.068 291.048 156.708 290.618 157.282C290.209 157.868 289.683 158.15 289.027 158.15C288.479 158.15 287.759 157.976 286.878 157.629C285.986 157.261 285.309 157.066 284.858 157.066C284.429 157.066 284.106 157.315 283.913 157.803H282.537C282.623 157.055 282.892 156.404 283.354 155.851C283.805 155.276 284.407 154.984 285.159 154.984C285.675 154.984 286.363 155.179 287.222 155.547C288.103 155.895 288.726 156.068 289.07 156.068C289.586 156.068 289.908 155.84 290.059 155.374Z" fill="black"/>
<path d="M322.941 177.971H311.121V159.277C311.121 159.256 311.078 159.104 310.992 158.844C310.928 158.562 310.874 158.258 310.82 157.933C310.756 157.618 310.734 157.445 310.734 157.412H322.941V159.364H313.743V166.434H320.878V168.386H313.743V176.019H322.941V177.971Z" fill="black"/>
<path d="M336.626 176.8L337.614 174.458C338.237 175.011 338.989 175.455 339.849 175.803C340.73 176.128 341.579 176.28 342.385 176.28C343.438 176.28 344.383 175.976 345.222 175.369C346.081 174.762 346.511 173.894 346.511 172.766C346.511 171.791 346.178 170.966 345.522 170.294C344.888 169.6 344.115 169.058 343.202 168.646C342.277 168.245 341.364 167.822 340.451 167.388C339.559 166.933 338.785 166.293 338.13 165.479C337.496 164.677 337.184 163.68 337.184 162.487C337.184 160.817 337.807 159.516 339.075 158.583C340.332 157.629 341.826 157.152 343.545 157.152C345.35 157.152 347.113 157.662 348.832 158.67L347.542 160.535C346.221 159.613 344.888 159.147 343.545 159.147C342.482 159.147 341.622 159.407 340.966 159.928C340.3 160.448 339.978 161.229 339.978 162.27C339.978 162.856 340.15 163.376 340.494 163.832C340.837 164.298 341.278 164.688 341.826 165.003C342.363 165.328 342.965 165.642 343.631 165.957C344.287 166.25 344.942 166.586 345.608 166.954C346.296 167.301 346.908 167.713 347.456 168.169C347.994 168.635 348.445 169.231 348.789 169.947C349.133 170.641 349.305 171.454 349.305 172.376C349.305 174.317 348.628 175.791 347.285 176.8C345.93 177.819 344.276 178.318 342.299 178.318C340.462 178.318 338.57 177.819 336.626 176.8Z" fill="black"/>
<path d="M397.089 177.971H394.212L391.849 170.902H385.144L382.735 177.971H380.414L387.465 157.412H390.042L397.089 177.971ZM391.201 168.993L388.539 160.839L385.788 168.993H391.201Z" fill="black"/>
<path d="M427.424 177.971H426.005L425.103 175.846C423.576 177.494 421.632 178.318 419.257 178.318C417.819 178.318 416.53 178.036 415.39 177.494C414.27 176.919 413.346 176.149 412.64 175.195C411.95 174.219 411.413 173.113 411.048 171.899C410.703 170.663 410.534 169.34 410.534 167.952C410.534 164.807 411.347 162.216 412.981 160.188C414.616 158.171 416.948 157.152 419.99 157.152C421.16 157.152 422.372 157.358 423.642 157.759C424.931 158.139 425.932 158.713 426.649 159.494L425.188 161.229C424.244 160.448 423.404 159.917 422.694 159.624C421.977 159.31 421.072 159.147 419.99 159.147C418.804 159.147 417.765 159.397 416.852 159.884C415.958 160.351 415.26 161.001 414.746 161.836C414.251 162.65 413.883 163.55 413.626 164.525C413.369 165.512 413.238 166.564 413.238 167.692C413.238 168.798 413.346 169.839 413.584 170.814C413.841 171.769 414.209 172.669 414.7 173.504C415.183 174.35 415.839 175.011 416.679 175.499C417.539 175.998 418.536 176.236 419.687 176.236C421.148 176.236 422.318 175.759 423.212 174.805C424.094 173.851 424.543 172.636 424.543 171.162V169.297H419.514L419.859 167.388H427.167V173.287C427.167 173.319 427.251 174.881 427.424 177.971Z" fill="black"/>
<path d="M457.387 177.971H454.379L449.093 168.689C448.664 168.722 447.954 168.733 446.987 168.733H445.61V177.971H442.99V159.277C442.99 159.256 442.96 159.104 442.906 158.844C442.841 158.562 442.776 158.258 442.691 157.933C442.626 157.618 442.603 157.445 442.603 157.412H448.664C453.275 157.412 455.584 159.31 455.584 163.094C455.584 164.222 455.196 165.285 454.422 166.261C453.67 167.215 452.757 167.865 451.671 168.212L457.387 177.971ZM445.61 166.824H447.847C449.393 166.824 450.609 166.543 451.499 165.957C452.381 165.382 452.833 164.374 452.833 162.921C452.833 161.771 452.423 160.882 451.629 160.275C450.854 159.668 449.868 159.364 448.664 159.364H445.61V166.824Z" fill="black"/>
<path d="M486.13 177.971H483.249L480.974 171.552H474.138L471.818 177.971H469.455L476.547 159.06H479.083L486.13 177.971ZM480.242 169.643L477.575 162.313L474.871 169.643H480.242ZM478.696 157.759H476.547L479.21 153.465H482.65L478.696 157.759Z" fill="black"/>
<path d="M514.873 177.971H511.865L506.579 168.689C506.15 168.722 505.44 168.733 504.473 168.733H503.096V177.971H500.476V159.277C500.476 159.256 500.442 159.104 500.388 158.844C500.323 158.562 500.261 158.258 500.173 157.933C500.108 157.618 500.089 157.445 500.089 157.412H506.15C510.757 157.412 513.066 159.31 513.066 163.094C513.066 164.222 512.682 165.285 511.908 166.261C511.156 167.215 510.243 167.865 509.157 168.212L514.873 177.971ZM503.096 166.824H505.333C506.879 166.824 508.095 166.543 508.984 165.957C509.867 165.382 510.316 164.374 510.316 162.921C510.316 161.771 509.909 160.882 509.115 160.275C508.34 159.668 507.35 159.364 506.15 159.364H503.096V166.824Z" fill="black"/>
<path d="M531.321 177.971H528.744V159.277C528.744 159.256 528.701 159.104 528.613 158.844C528.552 158.562 528.498 158.258 528.444 157.933C528.379 157.618 528.356 157.445 528.356 157.412H531.321V177.971Z" fill="black"/>
<path d="M562.638 177.971H559.758L557.395 170.902H550.689L548.284 177.971H545.963L553.01 157.412H555.588L562.638 177.971ZM556.75 168.993L554.084 160.839L551.334 168.993H556.75Z" fill="black"/>
<path d="M575.65 176.8L576.64 174.458C577.261 175.011 578.013 175.455 578.872 175.803C579.754 176.128 580.602 176.28 581.408 176.28C582.463 176.28 583.406 175.976 584.246 175.369C585.106 174.762 585.535 173.894 585.535 172.766C585.535 171.791 585.202 170.966 584.546 170.294C583.913 169.6 583.138 169.058 582.225 168.646C581.3 168.245 580.387 167.822 579.474 167.388C578.584 166.933 577.81 166.293 577.154 165.479C576.521 164.677 576.21 163.68 576.21 162.487C576.21 160.817 576.831 159.516 578.101 158.583C579.356 157.629 580.852 157.152 582.57 157.152C584.373 157.152 586.138 157.662 587.856 158.67L586.567 160.535C585.244 159.613 583.913 159.147 582.57 159.147C581.507 159.147 580.644 159.407 579.992 159.928C579.325 160.448 579.003 161.229 579.003 162.27C579.003 162.856 579.175 163.376 579.517 163.832C579.862 164.298 580.303 164.688 580.852 165.003C581.389 165.328 581.991 165.642 582.654 165.957C583.31 166.25 583.966 166.586 584.634 166.954C585.32 167.301 585.934 167.713 586.479 168.169C587.02 168.635 587.469 169.231 587.814 169.947C588.155 170.641 588.328 171.454 588.328 172.376C588.328 174.317 587.653 175.791 586.31 176.8C584.956 177.819 583.299 178.318 581.323 178.318C579.486 178.318 577.595 177.819 575.65 176.8Z" fill="black"/>
</g>
</svg>
