<svg width="222" height="55" viewBox="0 0 222 55" fill="none" xmlns="http://www.w3.org/2000/svg">
<g clip-path="url(#clip0_153_1847)">
<path d="M56.1291 11.9307C59.6772 11.9307 61.4545 13.7286 61.4545 17.3244V38.7861H55.442V29.9223H51.1077V38.7861H45.0952V17.3244C45.0952 13.7286 46.8692 11.9307 50.4206 11.9307H56.1291ZM51.1077 25.4967H55.442V16.6329C55.442 16.416 55.3627 16.2274 55.2041 16.0671C55.0456 15.9005 54.8507 15.8157 54.6227 15.8157H51.9138C51.6825 15.8157 51.4909 15.9005 51.3324 16.0671C51.1804 16.2274 51.1077 16.416 51.1077 16.6329V25.4967Z" fill="white"/>
<path d="M88.1785 24.315C90.0351 24.9436 90.9667 26.3895 90.9667 28.6526V33.3925C90.9667 36.9883 89.1894 38.7862 85.6414 38.7862H74.6074V12.3457H85.2978C88.8458 12.3457 90.6231 14.1436 90.6231 17.7394V20.1534C90.6231 22.3348 89.8072 23.7209 88.1785 24.315ZM83.7914 16.2181H80.6199V23.2966H83.7914C84.0193 23.2966 84.2142 23.218 84.3728 23.0577C84.5314 22.8911 84.6106 22.6994 84.6106 22.4794V17.0353C84.6106 16.8185 84.5314 16.6299 84.3728 16.4696C84.2142 16.303 84.0193 16.2181 83.7914 16.2181ZM84.9542 34.0463V28.112C84.9542 27.8951 84.8749 27.7065 84.7164 27.5462C84.5578 27.3796 84.3629 27.2947 84.1349 27.2947H80.6199V34.8635H84.1349C84.3629 34.8635 84.5578 34.785 84.7164 34.6247C84.8749 34.4581 84.9542 34.2663 84.9542 34.0463Z" fill="white"/>
<path d="M114.123 34.4485V30.3624H119.831V33.7947C119.831 37.4 118.054 39.201 114.506 39.201H109.101C105.55 39.201 103.776 37.4 103.776 33.7947V17.3244C103.776 13.7286 105.55 11.9307 109.101 11.9307H114.506C118.054 11.9307 119.831 13.7286 119.831 17.3244V19.8264H114.123V16.6329C114.123 16.416 114.043 16.2274 113.885 16.0671C113.726 15.9005 113.531 15.8157 113.303 15.8157H110.595C110.363 15.8157 110.172 15.9005 110.013 16.0671C109.861 16.2274 109.788 16.416 109.788 16.6329V34.4485C109.788 34.6685 109.861 34.8603 110.013 35.0269C110.172 35.1872 110.363 35.2657 110.595 35.2657H113.303C113.531 35.2657 113.726 35.1872 113.885 35.0269C114.043 34.8603 114.123 34.6685 114.123 34.4485Z" fill="white"/>
<path d="M142.951 12.3457C146.499 12.3457 148.276 14.1436 148.276 17.7394V23.0074C148.276 26.6032 146.499 28.4011 142.951 28.4011H138.088V38.7862H132.076V12.3457H142.951ZM142.264 23.6612V17.0856C142.264 16.8688 142.184 16.6802 142.026 16.5199C141.867 16.3533 141.672 16.2684 141.444 16.2684H138.088V24.4784H141.444C141.672 24.4784 141.867 24.3999 142.026 24.2395C142.184 24.073 142.264 23.8812 142.264 23.6612Z" fill="white"/>
<path d="M170.999 12.3457C174.547 12.3457 176.325 14.1436 176.325 17.7394V33.3925C176.325 36.9883 174.547 38.7862 170.999 38.7862H159.965V12.3457H170.999ZM170.312 34.0463V17.0353C170.312 16.8185 170.233 16.6299 170.074 16.4696C169.916 16.303 169.721 16.2181 169.493 16.2181H165.978V34.8635H169.493C169.721 34.8635 169.916 34.785 170.074 34.6247C170.233 34.4581 170.312 34.2663 170.312 34.0463Z" fill="white"/>
<path d="M40.7269 51.8879L41.0308 51.2089C41.2224 51.3692 41.4537 51.4981 41.7179 51.5987C41.9888 51.693 42.2498 51.737 42.4976 51.737C42.8213 51.737 43.112 51.649 43.3697 51.4729C43.634 51.2969 43.7662 51.0455 43.7662 50.7186C43.7662 50.4357 43.6637 50.1968 43.4622 50.0019C43.2673 49.8008 43.0295 49.6436 42.7487 49.5242C42.4645 49.4079 42.1837 49.2853 41.9029 49.1596C41.6287 49.0275 41.3909 48.8421 41.1894 48.6064C40.9945 48.3738 40.8987 48.0846 40.8987 47.7388C40.8987 47.2548 41.0903 46.8776 41.4801 46.6073C41.8666 46.3307 42.3258 46.1924 42.8544 46.1924C43.4094 46.1924 43.9512 46.3401 44.4797 46.6324L44.0833 47.1731C43.677 46.9059 43.2673 46.7707 42.8544 46.7707C42.5273 46.7707 42.263 46.8462 42.0615 46.997C41.8567 47.1479 41.7576 47.3742 41.7576 47.676C41.7576 47.8457 41.8104 47.9966 41.9162 48.1286C42.0219 48.2637 42.1573 48.3769 42.3258 48.4681C42.491 48.5624 42.676 48.6535 42.8808 48.7447C43.0823 48.8295 43.2838 48.927 43.4887 49.0338C43.7001 49.1344 43.8884 49.2539 44.0569 49.3859C44.222 49.521 44.3608 49.6939 44.4665 49.9014C44.5722 50.1025 44.6251 50.3383 44.6251 50.6054C44.6251 51.1681 44.417 51.5955 44.004 51.8879C43.5878 52.1833 43.079 52.3279 42.4712 52.3279C41.9062 52.3279 41.3248 52.1833 40.7269 51.8879Z" fill="white"/>
<path d="M51.641 52.3153C51.1818 52.3153 50.7721 52.2336 50.412 52.0764C50.0586 51.9099 49.7678 51.6835 49.5399 51.3975C49.3186 51.1146 49.1501 50.7909 49.0378 50.4294C48.9221 50.0617 48.866 49.6719 48.866 49.2601C48.866 48.3895 49.1038 47.6603 49.5795 47.0725C50.0619 46.4878 50.749 46.1924 51.641 46.1924C52.5296 46.1924 53.2135 46.4878 53.6892 47.0725C54.1715 47.6603 54.416 48.3895 54.416 49.2601C54.416 49.8228 54.3136 50.3288 54.112 50.7814C53.9171 51.2341 53.6033 51.605 53.1738 51.8879C52.751 52.1739 52.2389 52.3153 51.641 52.3153ZM53.5835 49.2601C53.5835 48.9521 53.5471 48.6535 53.4778 48.3675C53.4051 48.0846 53.2994 47.8206 53.1606 47.5754C53.0186 47.3239 52.817 47.1291 52.5528 46.9845C52.2951 46.8336 51.9911 46.7582 51.641 46.7582C51.2974 46.7582 50.9935 46.8336 50.7292 46.9845C50.4715 47.1291 50.27 47.3239 50.1213 47.5754C49.9793 47.8268 49.8736 48.0972 49.8042 48.38C49.7414 48.6566 49.7117 48.9521 49.7117 49.2601C49.7117 49.5713 49.7414 49.8699 49.8042 50.1528C49.8736 50.4294 49.9793 50.6934 50.1213 50.9449C50.27 51.1963 50.4715 51.3975 50.7292 51.5484C50.9935 51.693 51.2974 51.7621 51.641 51.7621C51.9911 51.7621 52.2951 51.693 52.5528 51.5484C52.817 51.3975 53.0186 51.1963 53.1606 50.9449C53.3093 50.6934 53.415 50.4294 53.4778 50.1528C53.5471 49.8699 53.5835 49.5713 53.5835 49.2601Z" fill="white"/>
<path d="M62.5651 52.2276H59.1294V46.8087C59.1294 46.8024 59.1162 46.7584 59.0898 46.683C59.07 46.6012 59.0534 46.5132 59.0369 46.4189C59.0171 46.3278 59.0105 46.2775 59.0105 46.2681H59.9355V51.6618H62.5651V52.2276Z" fill="white"/>
<path d="M71.057 50.1153V46.2681H71.731V50.1153C71.731 50.8131 71.5261 51.3569 71.1231 51.7498C70.7168 52.1364 70.1485 52.3281 69.4185 52.3281C68.6851 52.3281 68.1235 52.1521 67.727 51.8001C67.3306 51.4418 67.1324 50.9169 67.1324 50.2285V46.8087L67.0002 46.2681H67.9517V50.2285C67.9517 50.7063 68.0739 51.0834 68.3217 51.36C68.5661 51.6304 68.9427 51.7624 69.4449 51.7624C69.9635 51.7624 70.36 51.6178 70.6342 51.3223C70.915 51.0206 71.057 50.6182 71.057 50.1153Z" fill="white"/>
<mask id="mask0_153_1847" style="mask-type:luminance" maskUnits="userSpaceOnUse" x="76" y="45" width="7" height="10">
<path d="M76.1143 45.6992H82.0343V54.1481H76.1143V45.6992Z" fill="white"/>
</mask>
<g mask="url(#mask0_153_1847)">
<path d="M78.3405 53.7994L78.5519 53.4222C78.7799 53.5479 78.9616 53.6108 79.0937 53.6108C79.1994 53.6108 79.2853 53.5794 79.358 53.5228C79.4373 53.4631 79.4769 53.3876 79.4769 53.2965C79.4769 53.2022 79.4439 53.133 79.3844 53.0828C79.3217 53.0325 79.2424 53.0073 79.1466 53.0073H78.7369C78.6477 53.0073 78.6048 52.9727 78.6048 52.9067C78.6048 52.8973 78.6114 52.8816 78.6312 52.8564L78.9484 52.3032C78.1621 52.2121 77.551 51.8758 77.1116 51.2974C76.6689 50.7191 76.4509 50.0339 76.4509 49.2355C76.4509 48.3491 76.7085 47.6199 77.2305 47.0478C77.7492 46.4789 78.466 46.1929 79.3844 46.1929C79.7181 46.1929 80.065 46.2494 80.4284 46.3563C80.7885 46.4663 81.066 46.6266 81.2609 46.8341L80.8116 47.3118C80.653 47.1453 80.4317 47.0101 80.1509 46.9095C79.8767 46.8089 79.6157 46.7586 79.3712 46.7586C79.0078 46.7586 78.6907 46.8341 78.4198 46.985C78.1555 47.1295 77.9441 47.3244 77.7855 47.5759C77.6335 47.821 77.5212 48.0851 77.4419 48.368C77.3627 48.654 77.323 48.9589 77.323 49.2858C77.323 49.6127 77.3627 49.9207 77.4419 50.2036C77.5212 50.4802 77.6402 50.7379 77.7987 50.9705C77.9573 51.1968 78.172 51.3791 78.4462 51.5112C78.7171 51.6463 79.031 51.7123 79.3844 51.7123C79.6388 51.7123 79.9064 51.6683 80.1905 51.574C80.4812 51.4829 80.7191 51.3603 80.9041 51.2094L81.2741 51.75C81.0428 51.9355 80.7488 52.0769 80.3887 52.1775C80.0253 52.2781 79.6785 52.3284 79.3448 52.3284L79.1994 52.605H79.2919C79.5298 52.605 79.7346 52.6584 79.913 52.7684C80.098 52.8753 80.1905 53.045 80.1905 53.2713C80.1905 53.7743 79.8205 54.0257 79.0805 54.0257C78.8327 54.0257 78.585 53.9503 78.3405 53.7994Z" fill="white"/>
</g>
<path d="M85.3994 49.4992C85.3994 48.7197 85.6571 48.0534 86.1791 47.5002C86.6977 46.947 87.3617 46.6704 88.1744 46.6704C88.9739 46.6704 89.6346 46.947 90.1566 47.5002C90.6752 48.0534 90.9362 48.7197 90.9362 49.4992C90.9362 50.2788 90.6752 50.9451 90.1566 51.4983C89.6346 52.0515 88.9739 52.3281 88.1744 52.3281C87.3617 52.3281 86.6977 52.0515 86.1791 51.4983C85.6571 50.9451 85.3994 50.2788 85.3994 49.4992ZM88.1744 51.7749C88.7724 51.7749 89.2382 51.5455 89.5751 51.0834C89.9187 50.6245 90.0905 50.0964 90.0905 49.4992C90.0905 48.9052 89.9187 48.3771 89.5751 47.9151C89.2382 47.4562 88.7724 47.2236 88.1744 47.2236C87.7582 47.2236 87.4014 47.343 87.1041 47.5756C86.8034 47.8113 86.5821 48.0974 86.4433 48.4306C86.3112 48.7669 86.2451 49.1221 86.2451 49.4992C86.2451 50.0964 86.4169 50.6245 86.7605 51.0834C87.1041 51.5455 87.5732 51.7749 88.1744 51.7749ZM89.1787 45.6771H89.5883C89.5619 45.8783 89.4826 46.0637 89.3505 46.2303C89.225 46.4001 89.0631 46.4818 88.8616 46.4818C88.6931 46.4818 88.4717 46.4315 88.2008 46.3309C87.9266 46.224 87.7185 46.1675 87.5798 46.1675C87.4476 46.1675 87.3485 46.2398 87.2891 46.3812H86.8662C86.8926 46.1643 86.9752 45.9757 87.1173 45.8154C87.256 45.6488 87.441 45.564 87.6723 45.564C87.8308 45.564 88.0423 45.6205 88.3066 45.7274C88.5774 45.828 88.7691 45.8783 88.8748 45.8783C89.0333 45.8783 89.1324 45.8123 89.1787 45.6771Z" fill="white"/>
<path d="M99.2882 52.2276H95.6543V46.8087C95.6543 46.8024 95.6411 46.7584 95.6146 46.683C95.5948 46.6012 95.5783 46.5132 95.5618 46.4189C95.5419 46.3278 95.5353 46.2775 95.5353 46.2681H99.2882V46.8338H96.4603V48.8832H98.6539V49.449H96.4603V51.6618H99.2882V52.2276Z" fill="white"/>
<path d="M103.496 51.8879L103.8 51.2089C103.991 51.3692 104.222 51.4981 104.487 51.5987C104.758 51.693 105.019 51.737 105.266 51.737C105.59 51.737 105.881 51.649 106.138 51.4729C106.403 51.2969 106.535 51.0455 106.535 50.7186C106.535 50.4357 106.432 50.1968 106.231 50.0019C106.036 49.8008 105.798 49.6436 105.517 49.5242C105.233 49.4079 104.952 49.2853 104.672 49.1596C104.397 49.0275 104.16 48.8421 103.958 48.6064C103.763 48.3738 103.667 48.0846 103.667 47.7388C103.667 47.2548 103.859 46.8776 104.249 46.6073C104.635 46.3307 105.095 46.1924 105.623 46.1924C106.178 46.1924 106.72 46.3401 107.248 46.6324L106.852 47.1731C106.446 46.9059 106.036 46.7707 105.623 46.7707C105.296 46.7707 105.032 46.8462 104.83 46.997C104.625 47.1479 104.526 47.3742 104.526 47.676C104.526 47.8457 104.579 47.9966 104.685 48.1286C104.791 48.2637 104.926 48.3769 105.095 48.4681C105.26 48.5624 105.445 48.6535 105.65 48.7447C105.851 48.8295 106.053 48.927 106.257 49.0338C106.469 49.1344 106.657 49.2539 106.826 49.3859C106.991 49.521 107.13 49.6939 107.235 49.9014C107.341 50.1025 107.394 50.3383 107.394 50.6054C107.394 51.1681 107.186 51.5955 106.773 51.8879C106.356 52.1833 105.848 52.3279 105.24 52.3279C104.675 52.3279 104.094 52.1833 103.496 51.8879Z" fill="white"/>
<path d="M122.086 52.2276H121.2L120.473 50.1782H118.412L117.672 52.2276H116.958L119.126 46.2681H119.918L122.086 52.2276ZM120.275 49.625L119.456 47.2613L118.61 49.625H120.275Z" fill="white"/>
<path d="M131.411 52.2273H130.975L130.698 51.6112C130.229 52.089 129.631 52.3279 128.901 52.3279C128.458 52.3279 128.062 52.2462 127.711 52.089C127.368 51.9224 127.084 51.6993 126.866 51.4227C126.654 51.1398 126.489 50.8192 126.377 50.4671C126.271 50.1088 126.218 49.7253 126.218 49.323C126.218 48.4115 126.469 47.6603 126.971 47.0725C127.474 46.4878 128.19 46.1924 129.125 46.1924C129.485 46.1924 129.859 46.2521 130.249 46.3684C130.645 46.4784 130.952 46.645 131.174 46.8713L130.724 47.3742C130.434 47.1479 130.176 46.9939 129.958 46.909C129.737 46.8179 129.459 46.7707 129.125 46.7707C128.762 46.7707 128.442 46.843 128.161 46.9845C127.887 47.1196 127.672 47.3082 127.513 47.5502C127.361 47.786 127.249 48.0469 127.17 48.3298C127.09 48.6158 127.051 48.9207 127.051 49.2476C127.051 49.5682 127.084 49.8699 127.156 50.1528C127.236 50.4294 127.348 50.6903 127.5 50.9323C127.649 51.1775 127.85 51.3692 128.108 51.5107C128.372 51.6553 128.679 51.7244 129.033 51.7244C129.482 51.7244 129.842 51.5861 130.116 51.3095C130.387 51.0329 130.526 50.6809 130.526 50.2534V49.7128H128.98L129.086 49.1596H131.332V50.8695C131.332 50.8789 131.359 51.3315 131.411 52.2273Z" fill="white"/>
<path d="M140.624 52.2276H139.699L138.074 49.537C137.942 49.5464 137.724 49.5496 137.426 49.5496H137.003V52.2276H136.197V46.8087C136.197 46.8024 136.188 46.7584 136.171 46.683C136.151 46.6012 136.131 46.5132 136.105 46.4189C136.085 46.3278 136.078 46.2775 136.078 46.2681H137.942C139.359 46.2681 140.069 46.8181 140.069 47.9151C140.069 48.242 139.95 48.55 139.712 48.8329C139.481 49.1095 139.2 49.2981 138.867 49.3987L140.624 52.2276ZM137.003 48.9964H137.691C138.166 48.9964 138.54 48.9146 138.814 48.7449C139.085 48.5783 139.223 48.286 139.223 47.8648C139.223 47.5316 139.098 47.2739 138.853 47.0979C138.616 46.9219 138.312 46.8338 137.942 46.8338H137.003V48.9964Z" fill="white"/>
<path d="M149.461 52.2272H148.576L147.875 50.3664H145.774L145.061 52.2272H144.334L146.514 46.7454H147.294L149.461 52.2272ZM147.651 49.8132L146.831 47.6884L145.999 49.8132H147.651ZM147.175 46.3682H146.514L147.333 45.1235H148.391L147.175 46.3682Z" fill="white"/>
<path d="M158.298 52.2276H157.373L155.747 49.537C155.615 49.5464 155.397 49.5496 155.1 49.5496H154.677V52.2276H153.871V46.8087C153.871 46.8024 153.861 46.7584 153.845 46.683C153.825 46.6012 153.805 46.5132 153.779 46.4189C153.759 46.3278 153.752 46.2775 153.752 46.2681H155.615C157.033 46.2681 157.743 46.8181 157.743 47.9151C157.743 48.242 157.624 48.55 157.386 48.8329C157.155 49.1095 156.874 49.2981 156.54 49.3987L158.298 52.2276ZM154.677 48.9964H155.364C155.84 48.9964 156.213 48.9146 156.487 48.7449C156.758 48.5783 156.897 48.286 156.897 47.8648C156.897 47.5316 156.772 47.2739 156.527 47.0979C156.289 46.9219 155.985 46.8338 155.615 46.8338H154.677V48.9964Z" fill="white"/>
<path d="M163.355 52.2276H162.562V46.8087C162.562 46.8024 162.549 46.7584 162.523 46.683C162.503 46.6012 162.486 46.5132 162.47 46.4189C162.45 46.3278 162.443 46.2775 162.443 46.2681H163.355V52.2276Z" fill="white"/>
<path d="M172.983 52.2276H172.098L171.371 50.1782H169.31L168.57 52.2276H167.856L170.023 46.2681H170.816L172.983 52.2276ZM171.173 49.625L170.353 47.2613L169.508 49.625H171.173Z" fill="white"/>
<path d="M176.984 51.8879L177.288 51.2089C177.479 51.3692 177.71 51.4981 177.975 51.5987C178.246 51.693 178.507 51.737 178.754 51.737C179.078 51.737 179.369 51.649 179.626 51.4729C179.891 51.2969 180.023 51.0455 180.023 50.7186C180.023 50.4357 179.92 50.1968 179.719 50.0019C179.524 49.8008 179.286 49.6436 179.005 49.5242C178.721 49.4079 178.44 49.2853 178.16 49.1596C177.885 49.0275 177.648 48.8421 177.446 48.6064C177.251 48.3738 177.155 48.0846 177.155 47.7388C177.155 47.2548 177.347 46.8776 177.737 46.6073C178.123 46.3307 178.583 46.1924 179.111 46.1924C179.666 46.1924 180.208 46.3401 180.736 46.6324L180.34 47.1731C179.934 46.9059 179.524 46.7707 179.111 46.7707C178.784 46.7707 178.52 46.8462 178.318 46.997C178.113 47.1479 178.014 47.3742 178.014 47.676C178.014 47.8457 178.067 47.9966 178.173 48.1286C178.279 48.2637 178.414 48.3769 178.583 48.4681C178.748 48.5624 178.933 48.6535 179.138 48.7447C179.339 48.8295 179.541 48.927 179.745 49.0338C179.957 49.1344 180.145 49.2539 180.314 49.3859C180.479 49.521 180.618 49.6939 180.723 49.9014C180.829 50.1025 180.882 50.3383 180.882 50.6054C180.882 51.1681 180.674 51.5955 180.261 51.8879C179.844 52.1833 179.336 52.3279 178.728 52.3279C178.163 52.3279 177.582 52.1833 176.984 51.8879Z" fill="white"/>
</g>
<defs>
<clipPath id="clip0_153_1847">
<rect width="222" height="53.7109" fill="white" transform="translate(0 0.638184)"/>
</clipPath>
</defs>
</svg>
