<svg width="868" height="617" viewBox="0 0 868 617" fill="none" xmlns="http://www.w3.org/2000/svg">
<path d="M425.542 594.588L433.704 579.316L440.551 594.588" stroke="black" stroke-width="0.453243"/>
<path d="M15.6229 5.53082L38.635 13.6051L37.6571 19.8389L14.5039 14.7615L15.6229 5.53082Z" stroke="black" stroke-width="0.780309"/>
<mask id="mask0_9_7" style="mask-type:luminance" maskUnits="userSpaceOnUse" x="0" y="16" width="454" height="599">
<path d="M0 16.8519H453.078V614.119H0V16.8519Z" fill="white"/>
</mask>
<g mask="url(#mask0_9_7)">
<path d="M25.2881 20.0498L16.5024 65.8625L25.2881 108.477L39.3968 128.189L68.9465 146.837L112.605 159.888L167.973 166.812L222.547 172.669L245.172 175.867L261.147 181.728L269.398 191.851V219.016L264.604 224.343H167.973L155.196 227.008L138.158 236.063L124.05 246.983L112.605 259.236L108.879 266.963L107.013 271.224L108.879 276.552L112.605 282.679L122.189 293.066L133.633 301.586L147.742 310.113L165.578 316.503L189.804 318.104L216.954 316.503H259.281L266.999 329.025L272.057 349.799L290.163 392.414L309.06 437.428L325.036 480.582L338.077 517.604L345.265 539.445L352.983 562.883L357.778 574.871L367.626 587.125L381.47 594.847L405.956 598.579H425.393L433.111 596.977L435.776 594.847L437.103 588.99V583.927" stroke="black" stroke-width="16"/>
</g>
<path d="M841.593 20.0472L850.379 65.8599L841.593 108.475L827.484 128.185L797.935 146.834L754.276 159.886L698.908 166.81L644.334 172.667L621.709 175.865L605.734 181.726L597.483 191.848V219.013L602.277 224.341H698.908L711.685 227.006L728.723 236.06L742.831 246.981L754.276 259.233L758.002 266.961L759.869 271.222L758.002 276.55L754.276 282.676L744.692 293.062L733.248 301.583L719.139 310.109L701.303 316.5L677.077 318.102L649.927 316.5H607.6L599.882 329.023L594.824 349.796L576.718 392.411L557.821 437.426L541.845 480.579L528.804 517.601L521.616 539.443L513.898 562.881L509.103 574.869L499.255 587.122L485.411 594.845L460.925 598.576H441.488L433.77 596.975L431.105 594.845L429.778 588.987V583.924" stroke="black" stroke-width="16"/>
<path d="M829.092 15.6261L853.196 10.1767V14.2517L829.606 19.2291L829.092 15.6261Z" stroke="black" stroke-width="0.831139"/>
</svg>
