<svg width="189" height="49" viewBox="0 0 189 49" fill="none" xmlns="http://www.w3.org/2000/svg">
<g clip-path="url(#clip0_77_2058)">
<path d="M47.5923 10.1537C50.6007 10.1537 52.1078 11.7703 52.1078 15.0034V34.3005H47.0097V26.3307H43.3346V34.3005H38.2366V15.0034C38.2366 11.7703 39.7408 10.1537 42.752 10.1537H47.5923ZM43.3346 22.3515H47.0097V14.3816C47.0097 14.1866 46.9425 14.0171 46.808 13.8729C46.6736 13.7231 46.5083 13.6468 46.315 13.6468H44.0181C43.822 13.6468 43.6596 13.7231 43.5251 13.8729C43.3962 14.0171 43.3346 14.1866 43.3346 14.3816V22.3515Z" fill="#2E812E"/>
<path d="M74.7673 21.2888C76.3415 21.8541 77.1314 23.1541 77.1314 25.1889V29.4508C77.1314 32.684 75.6244 34.3005 72.616 34.3005H63.2602V10.5267H72.3247C75.3331 10.5267 76.8401 12.1433 76.8401 15.3765V17.547C76.8401 19.5083 76.1482 20.7547 74.7673 21.2888ZM71.0474 14.0086H68.3583V20.3731H71.0474C71.2406 20.3731 71.4059 20.3025 71.5404 20.1583C71.6748 20.0086 71.742 19.8362 71.742 19.6383V14.7434C71.742 14.5484 71.6748 14.3788 71.5404 14.2347C71.4059 14.0849 71.2406 14.0086 71.0474 14.0086ZM72.0334 30.0387V24.7028C72.0334 24.5078 71.9661 24.3383 71.8317 24.1941C71.6972 24.0443 71.532 23.968 71.3387 23.968H68.3583V30.7735H71.3387C71.532 30.7735 71.6972 30.7028 71.8317 30.5587C71.9661 30.4089 72.0334 30.2365 72.0334 30.0387Z" fill="#2E812E"/>
<path d="M96.7657 30.4004V26.7264H101.606V29.8126C101.606 33.0542 100.099 34.6736 97.0906 34.6736H92.5079C89.4967 34.6736 87.9925 33.0542 87.9925 29.8126V15.0034C87.9925 11.7703 89.4967 10.1537 92.5079 10.1537H97.0906C100.099 10.1537 101.606 11.7703 101.606 15.0034V17.253H96.7657V14.3816C96.7657 14.1866 96.6984 14.0171 96.564 13.8729C96.4295 13.7231 96.2643 13.6468 96.071 13.6468H93.774C93.578 13.6468 93.4155 13.7231 93.2811 13.8729C93.1522 14.0171 93.0906 14.1866 93.0906 14.3816V30.4004C93.0906 30.5983 93.1522 30.7707 93.2811 30.9204C93.4155 31.0646 93.578 31.1352 93.774 31.1352H96.071C96.2643 31.1352 96.4295 31.0646 96.564 30.9204C96.6984 30.7707 96.7657 30.5983 96.7657 30.4004Z" fill="#2E812E"/>
<path d="M121.209 10.5267C124.218 10.5267 125.725 12.1433 125.725 15.3765V20.1131C125.725 23.3463 124.218 24.9628 121.209 24.9628H117.086V34.3005H111.988V10.5267H121.209ZM120.627 20.701V14.7886C120.627 14.5936 120.559 14.424 120.425 14.2799C120.29 14.1301 120.125 14.0538 119.932 14.0538H117.086V21.4358H119.932C120.125 21.4358 120.29 21.3651 120.425 21.221C120.559 21.0712 120.627 20.8988 120.627 20.701Z" fill="#2E812E"/>
<path d="M144.992 10.5267C148 10.5267 149.507 12.1433 149.507 15.3765V29.4508C149.507 32.684 148 34.3005 144.992 34.3005H135.636V10.5267H144.992ZM144.409 30.0387V14.7434C144.409 14.5484 144.342 14.3788 144.207 14.2347C144.073 14.0849 143.908 14.0086 143.714 14.0086H140.734V30.7735H143.714C143.908 30.7735 144.073 30.7028 144.207 30.5587C144.342 30.4089 144.409 30.2365 144.409 30.0387Z" fill="#2E812E"/>
<path d="M34.5327 46.0809L34.7904 45.4704C34.9528 45.6146 35.1489 45.7304 35.373 45.8209C35.6027 45.9056 35.824 45.9452 36.0341 45.9452C36.3086 45.9452 36.5551 45.8661 36.7736 45.7078C36.9976 45.5496 37.1097 45.3235 37.1097 45.0295C37.1097 44.7752 37.0229 44.5604 36.852 44.3852C36.6867 44.2043 36.485 44.063 36.2469 43.9556C36.006 43.851 35.768 43.7408 35.5299 43.6278C35.2974 43.5091 35.0957 43.3423 34.9248 43.1303C34.7595 42.9212 34.6783 42.6612 34.6783 42.3503C34.6783 41.9151 34.8408 41.5759 35.1713 41.3329C35.499 41.0842 35.8884 40.9598 36.3366 40.9598C36.8072 40.9598 37.2666 41.0927 37.7147 41.3555L37.3786 41.8416C37.0341 41.6014 36.6867 41.4799 36.3366 41.4799C36.0593 41.4799 35.8352 41.5477 35.6643 41.6833C35.4906 41.819 35.4066 42.0225 35.4066 42.2938C35.4066 42.4464 35.4514 42.5821 35.5411 42.7008C35.6307 42.8223 35.7455 42.924 35.8884 43.006C36.0285 43.0908 36.1853 43.1727 36.359 43.2547C36.5299 43.331 36.7007 43.4186 36.8744 43.5147C37.0537 43.6051 37.2133 43.7125 37.3562 43.8312C37.4962 43.9528 37.6139 44.1082 37.7035 44.2947C37.7932 44.4756 37.838 44.6876 37.838 44.9278C37.838 45.4337 37.6615 45.818 37.3114 46.0809C36.9584 46.3465 36.5271 46.4765 36.0116 46.4765C35.5327 46.4765 35.0397 46.3465 34.5327 46.0809Z" fill="#2E812E"/>
<path d="M43.7868 46.4652C43.3974 46.4652 43.0501 46.3918 42.7448 46.2504C42.445 46.1007 42.1985 45.8972 42.0053 45.64C41.8176 45.3856 41.6747 45.0945 41.5795 44.7695C41.4815 44.4389 41.4338 44.0884 41.4338 43.7182C41.4338 42.9353 41.6355 42.2797 42.0389 41.7512C42.4478 41.2255 43.0305 40.9598 43.7868 40.9598C44.5403 40.9598 45.1201 41.2255 45.5235 41.7512C45.9324 42.2797 46.1397 42.9353 46.1397 43.7182C46.1397 44.2241 46.0529 44.6791 45.882 45.0861C45.7168 45.493 45.4507 45.8265 45.0865 46.0809C44.728 46.3381 44.2938 46.4652 43.7868 46.4652ZM45.4338 43.7182C45.4338 43.4412 45.403 43.1727 45.3442 42.9156C45.2826 42.6612 45.193 42.4238 45.0753 42.2034C44.9549 41.9773 44.784 41.802 44.5599 41.672C44.3414 41.5364 44.0837 41.4686 43.7868 41.4686C43.4955 41.4686 43.2378 41.5364 43.0137 41.672C42.7952 41.802 42.6243 41.9773 42.4983 42.2034C42.3778 42.4295 42.2882 42.6725 42.2294 42.9269C42.1761 43.1756 42.1509 43.4412 42.1509 43.7182C42.1509 43.998 42.1761 44.2665 42.2294 44.5208C42.2882 44.7695 42.3778 45.0069 42.4983 45.233C42.6243 45.4591 42.7952 45.64 43.0137 45.7756C43.2378 45.9056 43.4955 45.9678 43.7868 45.9678C44.0837 45.9678 44.3414 45.9056 44.5599 45.7756C44.784 45.64 44.9549 45.4591 45.0753 45.233C45.2014 45.0069 45.291 44.7695 45.3442 44.5208C45.403 44.2665 45.4338 43.998 45.4338 43.7182Z" fill="#2E812E"/>
<path d="M53.0495 46.3861H50.1364V41.5138C50.1364 41.5082 50.1252 41.4686 50.1027 41.4008C50.0859 41.3273 50.0719 41.2482 50.0579 41.1634C50.0411 41.0814 50.0355 41.0362 50.0355 41.0277H50.8198V45.8774H53.0495V46.3861Z" fill="#2E812E"/>
<path d="M60.2498 44.487V41.0277H60.8213V44.487C60.8213 45.1144 60.6476 45.6033 60.3059 45.9566C59.9613 46.3042 59.4795 46.4766 58.8605 46.4766C58.2386 46.4766 57.7624 46.3183 57.4263 46.0018C57.0902 45.6796 56.9221 45.2076 56.9221 44.5887V41.5138L56.8101 41.0277H57.6168V44.5887C57.6168 45.0183 57.7204 45.3574 57.9305 45.6061C58.1378 45.8492 58.4571 45.9679 58.8829 45.9679C59.3227 45.9679 59.6588 45.8379 59.8913 45.5722C60.1294 45.3009 60.2498 44.9391 60.2498 44.487Z" fill="#2E812E"/>
<mask id="mask0_77_2058" style="mask-type:luminance" maskUnits="userSpaceOnUse" x="64" y="40" width="6" height="9">
<path d="M64.538 40.5161H69.5576V48.1129H64.538V40.5161Z" fill="white"/>
</mask>
<g mask="url(#mask0_77_2058)">
<path d="M66.4256 47.7992L66.6049 47.46C66.7982 47.5731 66.9522 47.6296 67.0643 47.6296C67.1539 47.6296 67.2267 47.6014 67.2884 47.5505C67.3556 47.4968 67.3892 47.429 67.3892 47.347C67.3892 47.2622 67.3612 47.2 67.3108 47.1548C67.2575 47.1096 67.1903 47.087 67.1091 47.087H66.7617C66.6861 47.087 66.6497 47.0559 66.6497 46.9966C66.6497 46.9881 66.6553 46.9739 66.6721 46.9513L66.941 46.4539C66.2743 46.372 65.7561 46.0696 65.3836 45.5496C65.0082 45.0295 64.8234 44.4134 64.8234 43.6956C64.8234 42.8986 65.0419 42.2429 65.4844 41.7286C65.9242 41.217 66.5321 40.9598 67.3108 40.9598C67.5937 40.9598 67.8878 41.0107 68.1959 41.1068C68.5012 41.2057 68.7365 41.3499 68.9018 41.5364L68.5209 41.966C68.3864 41.8162 68.1987 41.6946 67.9606 41.6042C67.7281 41.5138 67.5068 41.4686 67.2996 41.4686C66.9914 41.4686 66.7225 41.5364 66.4928 41.672C66.2687 41.802 66.0895 41.9773 65.955 42.2034C65.8262 42.4238 65.7309 42.6612 65.6637 42.9156C65.5965 43.1727 65.5629 43.4469 65.5629 43.7408C65.5629 44.0347 65.5965 44.3117 65.6637 44.566C65.7309 44.8147 65.8318 45.0465 65.9662 45.2556C66.1007 45.4591 66.2828 45.623 66.5152 45.7417C66.7449 45.8633 67.011 45.9226 67.3108 45.9226C67.5265 45.9226 67.7533 45.883 67.9942 45.7983C68.2407 45.7163 68.4424 45.6061 68.5993 45.4704L68.913 45.9565C68.7169 46.1233 68.4676 46.2504 68.1623 46.3409C67.8542 46.4313 67.5601 46.4765 67.2772 46.4765L67.1539 46.7252H67.2323C67.434 46.7252 67.6077 46.7733 67.7589 46.8722C67.9158 46.9683 67.9942 47.1209 67.9942 47.3244C67.9942 47.7766 67.6805 48.0027 67.0531 48.0027C66.843 48.0027 66.6329 47.9348 66.4256 47.7992Z" fill="#2E812E"/>
</g>
<path d="M72.4109 43.933C72.4109 43.2321 72.6293 42.633 73.0719 42.1356C73.5117 41.6382 74.0747 41.3895 74.7638 41.3895C75.4417 41.3895 76.0019 41.6382 76.4445 42.1356C76.8843 42.633 77.1055 43.2321 77.1055 43.933C77.1055 44.6339 76.8843 45.2331 76.4445 45.7305C76.0019 46.2279 75.4417 46.4766 74.7638 46.4766C74.0747 46.4766 73.5117 46.2279 73.0719 45.7305C72.6293 45.2331 72.4109 44.6339 72.4109 43.933ZM74.7638 45.9792C75.2708 45.9792 75.6658 45.7729 75.9515 45.3574C76.2428 44.9448 76.3885 44.47 76.3885 43.933C76.3885 43.3989 76.2428 42.9241 75.9515 42.5086C75.6658 42.096 75.2708 41.8869 74.7638 41.8869C74.4109 41.8869 74.1083 41.9943 73.8562 42.2034C73.6013 42.4154 73.4137 42.6726 73.296 42.9721C73.184 43.2745 73.1279 43.5939 73.1279 43.933C73.1279 44.47 73.2736 44.9448 73.5649 45.3574C73.8562 45.7729 74.254 45.9792 74.7638 45.9792ZM75.6153 40.4964H75.9627C75.9403 40.6773 75.8731 40.844 75.761 40.9938C75.6546 41.1464 75.5173 41.2199 75.3464 41.2199C75.2036 41.2199 75.0159 41.1747 74.7862 41.0842C74.5537 40.9882 74.3772 40.9373 74.2596 40.9373C74.1476 40.9373 74.0635 41.0023 74.0131 41.1295H73.6546C73.677 40.9345 73.747 40.7649 73.8674 40.6207C73.9851 40.471 74.142 40.3947 74.338 40.3947C74.4725 40.3947 74.6518 40.4455 74.8759 40.5416C75.1055 40.6321 75.268 40.6773 75.3576 40.6773C75.4921 40.6773 75.5761 40.6179 75.6153 40.4964Z" fill="#2E812E"/>
<path d="M84.1873 46.3861H81.1061V41.5138C81.1061 41.5082 81.0949 41.4686 81.0724 41.4008C81.0556 41.3273 81.0416 41.2482 81.0276 41.1634C81.0108 41.0814 81.0052 41.0362 81.0052 41.0277H84.1873V41.5364H81.7895V43.3791H83.6495V43.8878H81.7895V45.8774H84.1873V46.3861Z" fill="#2E812E"/>
<path d="M87.7548 46.0809L88.0125 45.4704C88.1749 45.6146 88.371 45.7304 88.5951 45.8209C88.8248 45.9056 89.0461 45.9452 89.2562 45.9452C89.5307 45.9452 89.7772 45.8661 89.9957 45.7078C90.2198 45.5496 90.3318 45.3235 90.3318 45.0295C90.3318 44.7752 90.245 44.5604 90.0741 44.3852C89.9088 44.2043 89.7071 44.063 89.4691 43.9556C89.2282 43.851 88.9901 43.7408 88.752 43.6278C88.5195 43.5091 88.3178 43.3423 88.1469 43.1303C87.9817 42.9212 87.9004 42.6612 87.9004 42.3503C87.9004 41.9151 88.0629 41.5759 88.3934 41.3329C88.7211 41.0842 89.1105 40.9598 89.5587 40.9598C90.0293 40.9598 90.4887 41.0927 90.9368 41.3555L90.6007 41.8416C90.2562 41.6014 89.9088 41.4799 89.5587 41.4799C89.2814 41.4799 89.0573 41.5477 88.8864 41.6833C88.7127 41.819 88.6287 42.0225 88.6287 42.2938C88.6287 42.4464 88.6735 42.5821 88.7632 42.7008C88.8528 42.8223 88.9676 42.924 89.1105 43.006C89.2506 43.0908 89.4074 43.1727 89.5811 43.2547C89.752 43.331 89.9228 43.4186 90.0965 43.5147C90.2758 43.6051 90.4354 43.7125 90.5783 43.8312C90.7184 43.9528 90.836 44.1082 90.9256 44.2947C91.0153 44.4756 91.0601 44.6876 91.0601 44.9278C91.0601 45.4337 90.8836 45.818 90.5335 46.0809C90.1805 46.3465 89.7492 46.4765 89.2338 46.4765C88.7548 46.4765 88.2618 46.3465 87.7548 46.0809Z" fill="#2E812E"/>
<path d="M103.517 46.3861H102.767L102.151 44.5435H100.403L99.7751 46.3861H99.1701L101.008 41.0277H101.68L103.517 46.3861ZM101.982 44.0461L101.288 41.9208L100.571 44.0461H101.982Z" fill="#2E812E"/>
<path d="M111.425 46.3861H111.055L110.82 45.8322C110.422 46.2617 109.915 46.4765 109.296 46.4765C108.921 46.4765 108.585 46.4031 108.288 46.2617C107.996 46.112 107.755 45.9113 107.571 45.6626C107.391 45.4082 107.251 45.12 107.156 44.8034C107.066 44.4813 107.022 44.1365 107.022 43.7747C107.022 42.9551 107.234 42.2797 107.66 41.7512C108.086 41.2255 108.694 40.9598 109.487 40.9598C109.792 40.9598 110.108 41.0135 110.439 41.1181C110.775 41.217 111.036 41.3668 111.223 41.5703L110.842 42.0225C110.596 41.819 110.377 41.6805 110.192 41.6042C110.005 41.5222 109.769 41.4799 109.487 41.4799C109.178 41.4799 108.907 41.5449 108.669 41.672C108.436 41.7936 108.254 41.9631 108.12 42.1807C107.991 42.3927 107.895 42.6273 107.828 42.8816C107.761 43.1388 107.727 43.413 107.727 43.7069C107.727 43.9952 107.755 44.2665 107.817 44.5208C107.884 44.7695 107.98 45.0041 108.108 45.2217C108.234 45.4422 108.405 45.6146 108.624 45.7417C108.848 45.8717 109.108 45.9339 109.408 45.9339C109.789 45.9339 110.094 45.8096 110.327 45.5609C110.557 45.3122 110.674 44.9956 110.674 44.6113V44.1252H109.363L109.453 43.6278H111.358V45.1652C111.358 45.1737 111.38 45.5806 111.425 46.3861Z" fill="#2E812E"/>
<path d="M119.236 46.3861H118.452L117.074 43.9669C116.962 43.9754 116.777 43.9782 116.525 43.9782H116.166V46.3861H115.483V41.5138C115.483 41.5082 115.475 41.4686 115.461 41.4008C115.444 41.3273 115.427 41.2482 115.405 41.1634C115.388 41.0814 115.382 41.0362 115.382 41.0277H116.962C118.164 41.0277 118.766 41.5223 118.766 42.5086C118.766 42.8025 118.665 43.0795 118.463 43.3339C118.267 43.5826 118.029 43.7521 117.746 43.8426L119.236 46.3861ZM116.166 43.4808H116.749C117.152 43.4808 117.469 43.4074 117.701 43.2547C117.931 43.105 118.049 42.8421 118.049 42.4634C118.049 42.1638 117.942 41.9321 117.735 41.7738C117.533 41.6156 117.276 41.5364 116.962 41.5364H116.166V43.4808Z" fill="#2E812E"/>
<path d="M126.729 46.3861H125.978L125.385 44.713H123.603L122.998 46.3861H122.382L124.231 41.4572H124.892L126.729 46.3861ZM125.194 44.2156L124.499 42.3051L123.794 44.2156H125.194ZM124.791 41.1181H124.231L124.925 39.9989H125.822L124.791 41.1181Z" fill="#2E812E"/>
<path d="M134.222 46.3861H133.438L132.06 43.9669C131.948 43.9754 131.763 43.9782 131.511 43.9782H131.152V46.3861H130.469V41.5138C130.469 41.5082 130.46 41.4686 130.446 41.4008C130.429 41.3273 130.413 41.2482 130.39 41.1634C130.373 41.0814 130.368 41.0362 130.368 41.0277H131.948C133.149 41.0277 133.751 41.5223 133.751 42.5086C133.751 42.8025 133.651 43.0795 133.449 43.3339C133.253 43.5826 133.015 43.7521 132.732 43.8426L134.222 46.3861ZM131.152 43.4808H131.735C132.138 43.4808 132.455 43.4074 132.687 43.2547C132.917 43.105 133.034 42.8421 133.034 42.4634C133.034 42.1638 132.928 41.9321 132.721 41.7738C132.519 41.6156 132.261 41.5364 131.948 41.5364H131.152V43.4808Z" fill="#2E812E"/>
<path d="M138.51 46.3861H137.838V41.5138C137.838 41.5082 137.827 41.4686 137.804 41.4008C137.788 41.3273 137.774 41.2482 137.76 41.1634C137.743 41.0814 137.737 41.0362 137.737 41.0277H138.51V46.3861Z" fill="#2E812E"/>
<path d="M146.674 46.3861H145.923L145.307 44.5435H143.559L142.932 46.3861H142.327L144.164 41.0277H144.836L146.674 46.3861ZM145.139 44.0461L144.444 41.9208L143.727 44.0461H145.139Z" fill="#2E812E"/>
<path d="M150.066 46.0809L150.324 45.4704C150.486 45.6146 150.682 45.7304 150.906 45.8209C151.136 45.9056 151.357 45.9452 151.567 45.9452C151.842 45.9452 152.088 45.8661 152.307 45.7078C152.531 45.5496 152.643 45.3235 152.643 45.0295C152.643 44.7752 152.556 44.5604 152.385 44.3852C152.22 44.2043 152.018 44.063 151.78 43.9556C151.539 43.851 151.301 43.7408 151.063 43.6278C150.831 43.5091 150.629 43.3423 150.458 43.1303C150.293 42.9212 150.212 42.6612 150.212 42.3503C150.212 41.9151 150.374 41.5759 150.705 41.3329C151.032 41.0842 151.422 40.9598 151.87 40.9598C152.34 40.9598 152.8 41.0927 153.248 41.3555L152.912 41.8416C152.567 41.6014 152.22 41.4799 151.87 41.4799C151.593 41.4799 151.368 41.5477 151.198 41.6833C151.024 41.819 150.94 42.0225 150.94 42.2938C150.94 42.4464 150.985 42.5821 151.074 42.7008C151.164 42.8223 151.279 42.924 151.422 43.006C151.562 43.0908 151.719 43.1727 151.892 43.2547C152.063 43.331 152.234 43.4186 152.408 43.5147C152.587 43.6051 152.747 43.7125 152.889 43.8312C153.03 43.9528 153.147 44.1082 153.237 44.2947C153.326 44.4756 153.371 44.6876 153.371 44.9278C153.371 45.4337 153.195 45.818 152.845 46.0809C152.492 46.3465 152.06 46.4765 151.545 46.4765C151.066 46.4765 150.573 46.3465 150.066 46.0809Z" fill="#2E812E"/>
</g>
<defs>
<clipPath id="clip0_77_2058">
<rect width="188.236" height="48.2937" fill="white"/>
</clipPath>
</defs>
</svg>
