<svg width="40" height="35" viewBox="0 0 40 35" fill="none" xmlns="http://www.w3.org/2000/svg">
<g clip-path="url(#clip0_138_1876)">
<mask id="mask0_138_1876" style="mask-type:luminance" maskUnits="userSpaceOnUse" x="11" y="0" width="18" height="16">
<path d="M11.3335 0.576172H28.6668V15.5556H11.3335V0.576172Z" fill="white"/>
</mask>
<g mask="url(#mask0_138_1876)">
<mask id="mask1_138_1876" style="mask-type:luminance" maskUnits="userSpaceOnUse" x="11" y="0" width="18" height="16">
<path d="M28.8753 7.89028L20.1019 15.47L11.3311 7.89028L20.1019 0.310547L28.8753 7.89028Z" fill="white"/>
</mask>
<g mask="url(#mask1_138_1876)">
<mask id="mask2_138_1876" style="mask-type:luminance" maskUnits="userSpaceOnUse" x="11" y="0" width="18" height="16">
<path d="M28.8753 7.89028L20.1019 15.47L11.3311 7.89028L20.1019 0.310547L28.8753 7.89028Z" fill="white"/>
</mask>
<g mask="url(#mask2_138_1876)">
<path d="M12.2085 8.64856C11.7241 8.22997 11.7241 7.55031 12.2085 7.13172L19.2267 1.06883C19.7111 0.650234 20.495 0.650234 20.9793 1.06883L27.9976 7.13172C28.4819 7.55031 28.4819 8.22997 27.9976 8.64856L20.9793 14.7114C20.495 15.13 19.7111 15.13 19.2267 14.7114L12.2085 8.64856Z" fill="#38B6FF"/>
</g>
</g>
</g>
<mask id="mask3_138_1876" style="mask-type:luminance" maskUnits="userSpaceOnUse" x="11" y="19" width="18" height="16">
<path d="M11.3335 19.5884H28.6668V34.5678H11.3335V19.5884Z" fill="white"/>
</mask>
<g mask="url(#mask3_138_1876)">
<mask id="mask4_138_1876" style="mask-type:luminance" maskUnits="userSpaceOnUse" x="11" y="19" width="18" height="16">
<path d="M28.8753 26.9923L20.1019 34.5721L11.3311 26.9923L20.1019 19.4126L28.8753 26.9923Z" fill="white"/>
</mask>
<g mask="url(#mask4_138_1876)">
<mask id="mask5_138_1876" style="mask-type:luminance" maskUnits="userSpaceOnUse" x="11" y="19" width="18" height="16">
<path d="M28.8753 26.9923L20.1019 34.5721L11.3311 26.9923L20.1019 19.4126L28.8753 26.9923Z" fill="white"/>
</mask>
<g mask="url(#mask5_138_1876)">
<path d="M12.2085 27.7506C11.7241 27.332 11.7241 26.6524 12.2085 26.2338L19.2267 20.1709C19.7111 19.7523 20.495 19.7523 20.9793 20.1709L27.9976 26.2338C28.4819 26.6524 28.4819 27.332 27.9976 27.7506L20.9793 33.8157C20.495 34.2343 19.7111 34.2343 19.2267 33.8157L12.2085 27.7506Z" fill="#38B6FF"/>
</g>
</g>
</g>
<mask id="mask6_138_1876" style="mask-type:luminance" maskUnits="userSpaceOnUse" x="22" y="9" width="18" height="16">
<path d="M22.6665 9.79443H39.3332V24.7739H22.6665V9.79443Z" fill="white"/>
</mask>
<g mask="url(#mask6_138_1876)">
<mask id="mask7_138_1876" style="mask-type:luminance" maskUnits="userSpaceOnUse" x="22" y="9" width="18" height="16">
<path d="M39.7186 17.2773L30.9478 24.857L22.1743 17.2773L30.9478 9.69531L39.7186 17.2773Z" fill="white"/>
</mask>
<g mask="url(#mask7_138_1876)">
<mask id="mask8_138_1876" style="mask-type:luminance" maskUnits="userSpaceOnUse" x="22" y="9" width="18" height="16">
<path d="M39.7186 17.2773L30.9478 24.857L22.1743 17.2773L30.9478 9.69531L39.7186 17.2773Z" fill="white"/>
</mask>
<g mask="url(#mask8_138_1876)">
<path d="M23.0518 18.0333C22.5674 17.6147 22.5674 16.9373 23.0518 16.5187L30.07 10.4536C30.5544 10.035 31.3382 10.035 31.8226 10.4536L38.8408 16.5187C39.3252 16.9373 39.3252 17.6147 38.8408 18.0333L31.8226 24.0985C31.3382 24.5171 30.5544 24.5171 30.07 24.0985L23.0518 18.0333Z" fill="#38B6FF"/>
</g>
</g>
</g>
<mask id="mask9_138_1876" style="mask-type:luminance" maskUnits="userSpaceOnUse" x="0" y="9" width="18" height="16">
<path d="M0.666504 9.79443H17.9998V24.7739H0.666504V9.79443Z" fill="white"/>
</mask>
<g mask="url(#mask9_138_1876)">
<mask id="mask10_138_1876" style="mask-type:luminance" maskUnits="userSpaceOnUse" x="0" y="9" width="18" height="16">
<path d="M17.9113 17.0905L9.14046 24.6702L0.369629 17.0905L9.14046 9.51074L17.9113 17.0905Z" fill="white"/>
</mask>
<g mask="url(#mask10_138_1876)">
<mask id="mask11_138_1876" style="mask-type:luminance" maskUnits="userSpaceOnUse" x="0" y="9" width="18" height="16">
<path d="M17.9113 17.0905L9.14046 24.6702L0.369629 17.0905L9.14046 9.51074L17.9113 17.0905Z" fill="white"/>
</mask>
<g mask="url(#mask11_138_1876)">
<path d="M1.24707 17.8491C0.762695 17.4305 0.762695 16.7508 1.24707 16.3322L8.2627 10.2671C8.74707 9.84848 9.53353 9.84848 10.0179 10.2671L17.0335 16.3322C17.5179 16.7508 17.5179 17.4305 17.0335 17.8491L10.0179 23.9119C9.53353 24.3305 8.74707 24.3305 8.2627 23.9119L1.24707 17.8491Z" fill="#38B6FF"/>
</g>
</g>
</g>
</g>
<defs>
<clipPath id="clip0_138_1876">
<rect width="40" height="35" fill="white"/>
</clipPath>
</defs>
</svg>
