<svg width="23" height="22" viewBox="0 0 23 22" fill="none" xmlns="http://www.w3.org/2000/svg">
<rect width="23" height="22" fill="#0B7AB8"/>
<path fill-rule="evenodd" clip-rule="evenodd" d="M4.79248 10.0833C4.79248 7.05 7.37136 4.58325 10.5425 4.58325C13.7136 4.58325 16.2925 7.05 16.2925 10.0833C16.2925 13.1165 13.7136 15.5833 10.5425 15.5833C7.37136 15.5833 4.79248 13.1165 4.79248 10.0833ZM19.8442 17.6852L16.5907 14.5722C17.5998 13.331 18.2083 11.7754 18.2083 10.0833C18.2083 6.03986 14.7689 2.74994 10.5417 2.74994C6.31446 2.74994 2.875 6.03986 2.875 10.0833C2.875 14.1267 6.31446 17.4166 10.5417 17.4166C12.3108 17.4166 13.937 16.8345 15.2346 15.8693L18.4891 18.9814C18.676 19.1601 18.9213 19.2499 19.1667 19.2499C19.412 19.2499 19.6573 19.1601 19.8442 18.9814C20.2189 18.6229 20.2189 18.0436 19.8442 17.6852Z" fill="white"/>
</svg>
