<svg width="38" height="38" viewBox="0 0 38 38" fill="none" xmlns="http://www.w3.org/2000/svg">
<path d="M20.4728 17.4762H22.3976C22.446 17.4762 22.4938 17.4809 22.5417 17.4903C22.5891 17.4997 22.6351 17.5137 22.6797 17.532C22.7243 17.5508 22.767 17.5733 22.8069 17.6001C22.8473 17.6273 22.8843 17.6578 22.9186 17.6921C22.9529 17.7259 22.9834 17.7634 23.0101 17.8033C23.0373 17.8437 23.0599 17.8864 23.0782 17.931C23.097 17.9756 23.111 18.0216 23.1204 18.069C23.1298 18.1164 23.1345 18.1643 23.1345 18.2131V19.2888L27.7778 15.3665L23.1345 11.4441V12.4978C23.1345 12.5466 23.1298 12.5945 23.1204 12.6419C23.111 12.6893 23.097 12.7353 23.0782 12.7799C23.0599 12.8245 23.0373 12.8672 23.0101 12.9075C22.9834 12.9474 22.9529 12.985 22.9186 13.0188C22.8843 13.053 22.8473 13.0835 22.8069 13.1108C22.767 13.1375 22.7243 13.16 22.6797 13.1788C22.6351 13.1971 22.5891 13.2112 22.5417 13.2206C22.4938 13.23 22.446 13.2347 22.3976 13.2347H21.9898C21.7387 13.2347 21.488 13.2441 21.2402 13.2534C13.7189 13.5871 10.4611 15.1984 9.62517 18.9978C9.54116 19.4048 9.48906 19.8159 9.46888 20.2308C9.44822 20.6457 9.45996 21.0602 9.50361 21.4732C9.54726 21.8867 9.62235 22.2941 9.72937 22.6958C9.83591 23.0971 9.97296 23.4881 10.1405 23.8688L10.6056 24.9699C10.6803 24.7028 10.7657 24.439 10.8619 24.179C10.9581 23.919 11.0647 23.6632 11.1815 23.4121C11.2984 23.1605 11.4251 22.9141 11.5622 22.6728C11.6992 22.4321 11.8457 22.1965 12.0015 21.9674C12.1573 21.7379 12.3221 21.5154 12.4962 21.2995C12.6703 21.0836 12.8524 20.8752 13.0435 20.6739C13.2345 20.473 13.433 20.2796 13.6395 20.0947C13.846 19.9098 14.0596 19.7333 14.2807 19.5657C14.5013 19.3982 14.7289 19.2395 14.9622 19.0903C15.1959 18.941 15.4353 18.8012 15.6803 18.6716C15.9253 18.5416 16.175 18.4219 16.4298 18.3121C16.6847 18.2027 16.9433 18.1032 17.2061 18.015C17.4685 17.9263 17.7346 17.8484 18.0036 17.7813C18.2725 17.7142 18.5438 17.6578 18.8174 17.6128C19.091 17.5677 19.3661 17.5339 19.6425 17.5109C19.919 17.4879 20.1954 17.4767 20.4728 17.4762Z" fill="#349F06"/>
<mask id="mask0_380_1972" style="mask-type:luminance" maskUnits="userSpaceOnUse" x="0" y="0" width="38" height="38">
<path d="M0 0H37.5335V37.5021H0V0Z" fill="white"/>
</mask>
<g mask="url(#mask0_380_1972)">
<path d="M37.5243 18.788C37.5243 18.482 37.5168 18.176 37.5018 17.87C37.4868 17.5644 37.4642 17.2594 37.4342 16.9548C37.4042 16.6497 37.3671 16.346 37.322 16.0433C37.277 15.7405 37.2249 15.4388 37.1653 15.1388C37.1052 14.8385 37.0381 14.5399 36.9639 14.2428C36.8893 13.9457 36.8081 13.651 36.7189 13.3581C36.6302 13.0652 36.534 12.7747 36.4312 12.4861C36.3279 12.1979 36.2176 11.9125 36.1008 11.6295C35.9834 11.3469 35.8595 11.0672 35.7286 10.7903C35.5976 10.5134 35.4601 10.2402 35.3156 9.97034C35.1715 9.70046 35.0208 9.43387 34.8631 9.1715C34.7059 8.90867 34.5421 8.65052 34.3722 8.39567C34.2018 8.14128 34.0258 7.89111 33.8432 7.64517C33.6611 7.39923 33.4729 7.15799 33.2786 6.92144C33.0843 6.68488 32.8843 6.45302 32.6787 6.22633C32.4732 5.99916 32.2624 5.77763 32.0456 5.56126C31.8292 5.34488 31.6077 5.13368 31.381 4.9281C31.1538 4.72253 30.9224 4.52258 30.6854 4.32827C30.4489 4.13443 30.2076 3.94575 29.9617 3.76364C29.7157 3.58106 29.4656 3.40506 29.2112 3.23468C28.9568 3.06478 28.6982 2.90097 28.4353 2.74374C28.173 2.58651 27.9068 2.43538 27.6365 2.29129C27.3666 2.14673 27.0935 2.00921 26.8165 1.87826C26.5396 1.74731 26.2599 1.6234 25.9773 1.50653C25.6943 1.38919 25.409 1.2789 25.1208 1.17611C24.8326 1.07285 24.5416 0.976633 24.2487 0.887926C23.9559 0.799219 23.6611 0.717552 23.364 0.642925C23.0669 0.568767 22.7684 0.50165 22.468 0.442043C22.1681 0.381966 21.8663 0.329868 21.5636 0.28481C21.2608 0.239752 20.9572 0.202673 20.6526 0.172635C20.3475 0.142596 20.0424 0.120068 19.7369 0.105048C19.4308 0.0900291 19.1248 0.0825195 18.8188 0.0825195C18.5128 0.0825195 18.2068 0.0900291 17.9012 0.105048C17.5952 0.120068 17.2901 0.142596 16.9855 0.172635C16.6809 0.202673 16.3772 0.239752 16.074 0.28481C15.7713 0.329868 15.47 0.381966 15.1696 0.442043C14.8692 0.50165 14.5707 0.568767 14.2736 0.642925C13.977 0.717552 13.6818 0.799219 13.3889 0.887926C13.096 0.976633 12.8055 1.07285 12.5173 1.17611C12.2291 1.2789 11.9433 1.38919 11.6607 1.50653C11.3777 1.6234 11.098 1.74731 10.8211 1.87826C10.5446 2.00921 10.271 2.14673 10.0011 2.29129C9.73123 2.43538 9.4651 2.58651 9.20227 2.74374C8.9399 2.90097 8.68129 3.06478 8.42643 3.23468C8.17204 3.40506 7.92188 3.58106 7.67594 3.76364C7.43 3.94575 7.18875 4.13443 6.9522 4.32827C6.71564 4.52258 6.48378 4.72253 6.25709 4.9281C6.03039 5.13368 5.80839 5.34488 5.59202 5.56126C5.37565 5.77763 5.16444 5.99916 4.95886 6.22633C4.75329 6.45302 4.55334 6.68488 4.3595 6.92144C4.16519 7.15799 3.97698 7.39923 3.7944 7.64517C3.61229 7.89111 3.43582 8.14128 3.26591 8.39567C3.09554 8.65052 2.9322 8.90867 2.7745 9.1715C2.61727 9.43387 2.46661 9.70046 2.32205 9.97034C2.17796 10.2402 2.03997 10.5134 1.90949 10.7903C1.77854 11.0672 1.65416 11.3469 1.53729 11.6295C1.41995 11.9125 1.31013 12.1979 1.20687 12.4861C1.10361 12.7747 1.00786 13.0652 0.918688 13.3581C0.82998 13.651 0.748313 13.9457 0.673687 14.2428C0.599529 14.5399 0.532412 14.8385 0.472804 15.1388C0.413197 15.4388 0.360629 15.7405 0.315571 16.0433C0.270983 16.346 0.233435 16.6497 0.203397 16.9548C0.173358 17.2594 0.150829 17.5644 0.13581 17.87C0.120791 18.176 0.113281 18.482 0.113281 18.788C0.113281 19.0941 0.120791 19.4001 0.13581 19.7056C0.150829 20.0116 0.173358 20.3167 0.203397 20.6213C0.233435 20.9259 0.270983 21.2301 0.316041 21.5328C0.360629 21.8355 0.413197 22.1369 0.472804 22.4372C0.532412 22.7376 0.599529 23.0361 0.674156 23.3332C0.748313 23.6299 0.82998 23.9251 0.918688 24.218C1.00786 24.5108 1.10361 24.8014 1.20687 25.0895C1.31013 25.3777 1.41995 25.6636 1.53729 25.9461C1.65416 26.2291 1.77854 26.5089 1.90949 26.7858C2.03997 27.0622 2.17796 27.3359 2.32205 27.6057C2.46661 27.8756 2.61727 28.1422 2.7745 28.4046C2.9322 28.6669 3.09554 28.9256 3.26591 29.1804C3.43582 29.4348 3.61229 29.685 3.7944 29.9309C3.97698 30.1768 4.16519 30.4181 4.3595 30.6546C4.55334 30.8912 4.75329 31.1231 4.95886 31.3498C5.16444 31.5769 5.37565 31.7985 5.59202 32.0148C5.80839 32.2312 6.03039 32.4424 6.25709 32.648C6.48378 32.8536 6.71564 33.0535 6.9522 33.2478C7.18875 33.4417 7.43 33.6299 7.67594 33.8124C7.92188 33.995 8.17204 34.171 8.42643 34.3409C8.68129 34.5113 8.9399 34.6751 9.20227 34.8323C9.4651 34.9896 9.73123 35.1407 10.0011 35.2848C10.271 35.4294 10.5446 35.5669 10.8211 35.6978C11.098 35.8283 11.3777 35.9527 11.6607 36.0696C11.9433 36.1869 12.2291 36.2972 12.5173 36.4C12.8055 36.5032 13.096 36.5994 13.3889 36.6882C13.6818 36.7769 13.977 36.8585 14.2736 36.9332C14.5707 37.0073 14.8692 37.0744 15.1696 37.134C15.47 37.1936 15.7713 37.2462 16.074 37.2913C16.3772 37.3359 16.6809 37.3734 16.9855 37.4034C17.2901 37.4335 17.5952 37.456 17.9012 37.471C18.2068 37.4861 18.5128 37.4936 18.8188 37.4936C19.1248 37.4931 19.4308 37.4856 19.7364 37.4701C20.0419 37.4546 20.347 37.4316 20.6516 37.4016C20.9562 37.3711 21.2599 37.3335 21.5626 37.2885C21.8654 37.2429 22.1667 37.1904 22.4666 37.1308C22.767 37.0707 23.065 37.0031 23.3621 36.9289C23.6588 36.8543 23.9535 36.7722 24.2464 36.6835C24.5393 36.5943 24.8298 36.4981 25.1175 36.3948C25.4057 36.2916 25.691 36.1813 25.9741 36.0639C26.2566 35.9466 26.5363 35.8227 26.8128 35.6917C27.0892 35.5603 27.3624 35.4228 27.6323 35.2782C27.9022 35.1341 28.1683 34.983 28.4306 34.8258C28.693 34.6685 28.9516 34.5047 29.206 34.3344C29.4604 34.1645 29.7106 33.988 29.9565 33.8059C30.202 33.6233 30.4432 33.4351 30.6798 33.2408C30.9163 33.0469 31.1477 32.847 31.3749 32.6414C31.6016 32.4358 31.8231 32.2251 32.0395 32.0083C32.2559 31.7919 32.4666 31.5704 32.6722 31.3437C32.8777 31.117 33.0777 30.8856 33.272 30.649C33.4658 30.4125 33.6545 30.1712 33.8366 29.9253C34.0192 29.6798 34.1952 29.4296 34.3651 29.1753C34.5355 28.9209 34.6993 28.6623 34.8565 28.3999C35.0142 28.1375 35.1649 27.8714 35.3095 27.6015C35.4535 27.3316 35.5915 27.0585 35.7225 26.782C35.8534 26.5051 35.9773 26.2258 36.0947 25.9428C36.212 25.6603 36.3223 25.3749 36.4256 25.0867C36.5288 24.7986 36.625 24.5085 36.7142 24.2156C36.8034 23.9227 36.8851 23.628 36.9597 23.3314C37.0343 23.0343 37.1014 22.7358 37.1615 22.4358C37.2216 22.1355 37.2742 21.8341 37.3192 21.5314C37.3643 21.2291 37.4023 20.9255 37.4323 20.6209C37.4628 20.3162 37.4854 20.0112 37.5009 19.7056C37.5163 19.4001 37.5243 19.0941 37.5243 18.788ZM10.2883 28.0033L8.78314 24.44C8.52218 23.8317 8.32364 23.2037 8.18847 22.556C8.05329 21.9078 7.98383 21.2526 7.98008 20.5908C7.97914 19.9464 8.04813 19.3095 8.18612 18.6796C9.42051 13.0699 15.1607 12.0472 21.182 11.7802C21.342 11.7736 21.5021 11.768 21.6626 11.7642V9.85629C21.6626 9.78589 21.6725 9.71736 21.6917 9.64977C21.7114 9.58266 21.7405 9.51929 21.7781 9.46016C21.8161 9.40055 21.8611 9.34798 21.9142 9.30198C21.9667 9.25552 22.0254 9.2175 22.0888 9.18793C22.1526 9.15836 22.2193 9.13865 22.2887 9.12786C22.3582 9.11753 22.4276 9.11659 22.4971 9.12598C22.5666 9.13536 22.6337 9.15414 22.698 9.18277C22.7618 9.2114 22.821 9.24801 22.8745 9.29354L29.3961 14.8009C29.4355 14.8366 29.4703 14.876 29.5012 14.9187C29.5322 14.9619 29.5585 15.0074 29.5801 15.0558C29.6012 15.1041 29.6176 15.1543 29.6284 15.2064C29.6397 15.2581 29.6449 15.3106 29.6449 15.3637C29.6449 15.4162 29.6397 15.4688 29.6284 15.5209C29.6176 15.5725 29.6012 15.6227 29.5801 15.6711C29.5585 15.7194 29.5322 15.7654 29.5012 15.8081C29.4703 15.8513 29.4355 15.8903 29.3961 15.9259L22.8745 21.4375C22.821 21.4831 22.7618 21.5201 22.698 21.5483C22.6337 21.5769 22.5666 21.5957 22.4971 21.6051C22.4276 21.6145 22.3582 21.614 22.2887 21.6032C22.2193 21.5929 22.1526 21.5727 22.0888 21.5431C22.0254 21.5136 21.9667 21.4755 21.9142 21.4295C21.8611 21.3831 21.8161 21.3305 21.7781 21.2714C21.7405 21.2122 21.7114 21.1489 21.6917 21.0813C21.6725 21.0142 21.6626 20.9452 21.6626 20.8748V18.949H20.4728C20.3296 18.9495 20.186 18.9533 20.0429 18.9603C19.8992 18.9673 19.7566 18.9781 19.6134 18.9922C19.4707 19.0068 19.3285 19.0241 19.1868 19.0457C19.0446 19.0668 18.9033 19.0912 18.7629 19.1194C18.6221 19.1476 18.4823 19.179 18.3429 19.2142C18.204 19.2489 18.0655 19.2874 17.9284 19.3292C17.7909 19.371 17.6548 19.416 17.5196 19.4644C17.3849 19.5132 17.2512 19.5648 17.1183 19.6197C16.986 19.6746 16.855 19.7328 16.725 19.7943C16.5955 19.8558 16.4674 19.9201 16.3411 19.9882C16.2144 20.0558 16.0895 20.1266 15.9666 20.2003C15.8436 20.274 15.7225 20.351 15.6033 20.4308C15.4841 20.5106 15.3667 20.5932 15.2513 20.6786C15.1363 20.764 15.0232 20.8522 14.9124 20.9433C14.8012 21.0344 14.6927 21.1282 14.5867 21.2244C14.4801 21.3207 14.3764 21.4197 14.275 21.5211C14.1736 21.6229 14.0746 21.7266 13.9784 21.8327C13.8817 21.9393 13.7883 22.0477 13.6972 22.1589C13.6062 22.2697 13.518 22.3828 13.4325 22.4978C13.3466 22.6133 13.264 22.7306 13.1847 22.8498C13.1049 22.969 13.0279 23.0901 12.9543 23.2131C12.8806 23.3361 12.8097 23.4609 12.7421 23.5876C12.6741 23.7139 12.6098 23.842 12.5483 23.972C12.4868 24.1016 12.4286 24.2325 12.3737 24.3653C12.3188 24.4977 12.2671 24.6315 12.2188 24.7666C12.1704 24.9018 12.1254 25.0379 12.0836 25.175C12.0418 25.3125 12.0034 25.4505 11.9686 25.5899C11.9334 25.7288 11.902 25.8687 11.8738 26.0095C11.8457 26.1503 11.8212 26.2916 11.8001 26.4333C11.7785 26.5755 11.7612 26.7177 11.7466 26.8604C11.7325 27.0031 11.7217 27.1462 11.7147 27.2894C11.7077 27.433 11.7039 27.5762 11.7039 27.7198C11.7044 27.8052 11.6908 27.8883 11.6621 27.969C11.634 28.0497 11.5927 28.123 11.5387 28.1896C11.4852 28.2558 11.4214 28.3112 11.3481 28.3553C11.2754 28.3994 11.1965 28.4304 11.113 28.4473C11.029 28.4642 10.945 28.4665 10.8605 28.4539C10.7755 28.4417 10.6957 28.4154 10.6202 28.375C10.5451 28.3346 10.4784 28.283 10.4212 28.2197C10.3634 28.1563 10.3189 28.0849 10.286 28.0061L10.2883 28.0033Z" fill="#349F06"/>
</g>
</svg>
