<svg width="47" height="51" viewBox="0 0 47 51" fill="none" xmlns="http://www.w3.org/2000/svg">
<path d="M9.91188 37.7572C13.8441 35.326 18.3869 33.9385 23.226 33.9385C28.0651 33.9385 32.608 35.326 36.5401 37.7572M29.0325 21.2358C29.0325 24.7435 26.4328 27.5871 23.226 27.5871C20.0192 27.5871 17.4196 24.7435 17.4196 21.2358C17.4196 17.728 20.0192 14.8844 23.226 14.8844C26.4328 14.8844 29.0325 17.728 29.0325 21.2358ZM40.6454 25.47C40.6454 35.9933 32.8465 44.5241 23.226 44.5241C13.6056 44.5241 5.80664 35.9933 5.80664 25.47C5.80664 14.9467 13.6056 6.41589 23.226 6.41589C32.8465 6.41589 40.6454 14.9467 40.6454 25.47Z" stroke="#032759" stroke-width="3.87097" stroke-linecap="round" stroke-linejoin="round"/>
</svg>
