<svg width="18" height="18" viewBox="0 0 18 18" fill="none" xmlns="http://www.w3.org/2000/svg">
<path fill-rule="evenodd" clip-rule="evenodd" d="M8.99442 17.8256H8.99073C7.49794 17.8251 6.03113 17.4719 4.72834 16.8018L0 17.9714L1.26538 13.6128C0.484833 12.3372 0.0741118 10.8902 0.0747811 9.40777C0.0767378 4.77015 4.07801 0.99707 8.99434 0.99707C11.3804 0.998041 13.6199 1.874 15.3039 3.4639C16.9879 5.05372 17.9148 7.16698 17.9138 9.41441C17.9119 14.051 13.9122 17.8237 8.99442 17.8256ZM4.94749 15.2791L5.2182 15.4306C6.35644 16.0675 7.6612 16.4046 8.99149 16.4051H8.9945C13.0806 16.4051 16.4063 13.2688 16.4079 9.41394C16.4087 7.54589 15.6383 5.78944 14.2386 4.46798C12.8389 3.14651 10.9776 2.41841 8.99741 2.41776C4.90815 2.41776 1.58243 5.5537 1.58081 9.40827C1.58024 10.7293 1.97218 12.0158 2.71429 13.1288L2.89055 13.3933L2.14163 15.9732L4.94749 15.2791ZM13.1827 11.2254C13.3382 11.2962 13.4431 11.344 13.4879 11.4146C13.5436 11.5022 13.5436 11.923 13.358 12.414C13.1722 12.9049 12.2819 13.353 11.8536 13.4133C11.4697 13.4675 10.9838 13.49 10.4499 13.33C10.1262 13.2332 9.71113 13.1039 9.1794 12.8873C7.09006 12.0366 5.6781 10.1269 5.41124 9.76601C5.39255 9.74073 5.37948 9.72305 5.37218 9.71386L5.37038 9.7116C5.25244 9.5632 4.46216 8.56886 4.46216 7.53975C4.46216 6.57166 4.96643 6.06424 5.19855 5.83067C5.21445 5.81466 5.22908 5.79995 5.24218 5.78646C5.44646 5.57605 5.68792 5.52344 5.83649 5.52344C5.98504 5.52344 6.13378 5.52474 6.26363 5.53089C6.27966 5.53165 6.29632 5.53155 6.31355 5.53146C6.44343 5.53074 6.60534 5.52985 6.76507 5.89166C6.82652 6.0309 6.91644 6.23733 7.01127 6.45505C7.20304 6.89533 7.41493 7.38179 7.45221 7.45219C7.50794 7.55739 7.54507 7.68008 7.47079 7.8204C7.45964 7.84144 7.44932 7.8613 7.43947 7.88027C7.38367 7.98769 7.34263 8.06671 7.24793 8.17098C7.21069 8.21198 7.17221 8.25618 7.13372 8.30038C7.05705 8.38844 6.98038 8.47648 6.91362 8.5392C6.80205 8.644 6.68591 8.75771 6.81591 8.96812C6.94591 9.17853 7.39319 9.86673 8.05574 10.424C8.76794 11.0231 9.38693 11.2763 9.70069 11.4046C9.76196 11.4297 9.81159 11.45 9.84801 11.4672C10.0708 11.5724 10.2008 11.5548 10.3308 11.4146C10.4608 11.2743 10.8879 10.8009 11.0365 10.5905C11.185 10.3802 11.3337 10.4152 11.5379 10.4853C11.7422 10.5555 12.838 11.0639 13.0608 11.1691C13.1043 11.1896 13.145 11.2082 13.1827 11.2254Z" fill="white"/>
</svg>
